%TF.GenerationSoftware,KiCad,Pcbnew,9.0.0*%
%TF.CreationDate,2025-05-06T12:44:32+02:00*%
%TF.ProjectId,Headless TEF lite,48656164-6c65-4737-9320-544546206c69,v1.0*%
%TF.SameCoordinates,Original*%
%TF.FileFunction,Drillmap*%
%TF.FilePolarity,Positive*%
%FSLAX45Y45*%
G04 Gerber Fmt 4.5, Leading zero omitted, Abs format (unit mm)*
G04 Created by KiCad (PCBNEW 9.0.0) date 2025-05-06 12:44:32*
%MOMM*%
%LPD*%
G01*
G04 APERTURE LIST*
%ADD10C,0.200000*%
%ADD11C,0.100000*%
%ADD12C,0.260000*%
G04 APERTURE END LIST*
D10*
X11390000Y-7400000D02*
X11390000Y-5100000D01*
X16890000Y-7400000D02*
G75*
G02*
X16790000Y-7500000I-100000J0D01*
G01*
X11490000Y-7500000D02*
G75*
G02*
X11390000Y-7400000I0J100000D01*
G01*
X11490000Y-7500000D02*
X16790000Y-7500000D01*
X16790000Y-5000000D02*
G75*
G02*
X16890000Y-5100000I0J-100000D01*
G01*
X16790000Y-5000000D02*
X11490000Y-5000000D01*
X11390000Y-5100000D02*
G75*
G02*
X11490000Y-5000000I100000J0D01*
G01*
X16890000Y-5100000D02*
X16890000Y-7400000D01*
D11*
X13095890Y-6077780D02*
X13115890Y-6097780D01*
X13115890Y-6077780D02*
X13095890Y-6097780D01*
X13095890Y-6197780D02*
X13115890Y-6217780D01*
X13115890Y-6197780D02*
X13095890Y-6217780D01*
X13095890Y-6317780D02*
X13115890Y-6337780D01*
X13115890Y-6317780D02*
X13095890Y-6337780D01*
X13095890Y-6437780D02*
X13115890Y-6457780D01*
X13115890Y-6437780D02*
X13095890Y-6457780D01*
X13215890Y-6077780D02*
X13235890Y-6097780D01*
X13235890Y-6077780D02*
X13215890Y-6097780D01*
X13215890Y-6197780D02*
X13235890Y-6217780D01*
X13235890Y-6197780D02*
X13215890Y-6217780D01*
X13215890Y-6317780D02*
X13235890Y-6337780D01*
X13235890Y-6317780D02*
X13215890Y-6337780D01*
X13215890Y-6437780D02*
X13235890Y-6457780D01*
X13235890Y-6437780D02*
X13215890Y-6457780D01*
X13335890Y-6077780D02*
X13355890Y-6097780D01*
X13355890Y-6077780D02*
X13335890Y-6097780D01*
X13335890Y-6197780D02*
X13355890Y-6217780D01*
X13355890Y-6197780D02*
X13335890Y-6217780D01*
X13335890Y-6317780D02*
X13355890Y-6337780D01*
X13355890Y-6317780D02*
X13335890Y-6337780D01*
X13335890Y-6437780D02*
X13355890Y-6457780D01*
X13355890Y-6437780D02*
X13335890Y-6457780D01*
X13455890Y-6077780D02*
X13475890Y-6097780D01*
X13475890Y-6077780D02*
X13455890Y-6097780D01*
X13455890Y-6197780D02*
X13475890Y-6217780D01*
X13475890Y-6197780D02*
X13455890Y-6217780D01*
X13455890Y-6317780D02*
X13475890Y-6337780D01*
X13475890Y-6317780D02*
X13455890Y-6337780D01*
X13455890Y-6437780D02*
X13475890Y-6457780D01*
X13475890Y-6437780D02*
X13455890Y-6457780D01*
X14762280Y-6129320D02*
X14782280Y-6149320D01*
X14782280Y-6129320D02*
X14762280Y-6149320D01*
X14762280Y-6229320D02*
X14782280Y-6249320D01*
X14782280Y-6229320D02*
X14762280Y-6249320D01*
X14762280Y-6329320D02*
X14782280Y-6349320D01*
X14782280Y-6329320D02*
X14762280Y-6349320D01*
X14862280Y-6129320D02*
X14882280Y-6149320D01*
X14882280Y-6129320D02*
X14862280Y-6149320D01*
X14862280Y-6229320D02*
X14882280Y-6249320D01*
X14882280Y-6229320D02*
X14862280Y-6249320D01*
X14862280Y-6329320D02*
X14882280Y-6349320D01*
X14882280Y-6329320D02*
X14862280Y-6349320D01*
X14962280Y-6129320D02*
X14982280Y-6149320D01*
X14982280Y-6129320D02*
X14962280Y-6149320D01*
X14962280Y-6229320D02*
X14982280Y-6249320D01*
X14982280Y-6229320D02*
X14962280Y-6249320D01*
X14962280Y-6329320D02*
X14982280Y-6349320D01*
X14982280Y-6329320D02*
X14962280Y-6349320D01*
X11950460Y-6822440D02*
G75*
G02*
X11920460Y-6822440I-15000J0D01*
G01*
X11920460Y-6822440D02*
G75*
G02*
X11950460Y-6822440I15000J0D01*
G01*
X12092700Y-5638800D02*
G75*
G02*
X12062700Y-5638800I-15000J0D01*
G01*
X12062700Y-5638800D02*
G75*
G02*
X12092700Y-5638800I15000J0D01*
G01*
X12096080Y-5854700D02*
G75*
G02*
X12066080Y-5854700I-15000J0D01*
G01*
X12066080Y-5854700D02*
G75*
G02*
X12096080Y-5854700I15000J0D01*
G01*
X12103700Y-6717900D02*
G75*
G02*
X12073700Y-6717900I-15000J0D01*
G01*
X12073700Y-6717900D02*
G75*
G02*
X12103700Y-6717900I15000J0D01*
G01*
X12204460Y-5069840D02*
G75*
G02*
X12174460Y-5069840I-15000J0D01*
G01*
X12174460Y-5069840D02*
G75*
G02*
X12204460Y-5069840I15000J0D01*
G01*
X12207000Y-5320900D02*
G75*
G02*
X12177000Y-5320900I-15000J0D01*
G01*
X12177000Y-5320900D02*
G75*
G02*
X12207000Y-5320900I15000J0D01*
G01*
X12357700Y-5823820D02*
G75*
G02*
X12327700Y-5823820I-15000J0D01*
G01*
X12327700Y-5823820D02*
G75*
G02*
X12357700Y-5823820I15000J0D01*
G01*
X12357700Y-6057500D02*
G75*
G02*
X12327700Y-6057500I-15000J0D01*
G01*
X12327700Y-6057500D02*
G75*
G02*
X12357700Y-6057500I15000J0D01*
G01*
X12357700Y-6189580D02*
G75*
G02*
X12327700Y-6189580I-15000J0D01*
G01*
X12327700Y-6189580D02*
G75*
G02*
X12357700Y-6189580I15000J0D01*
G01*
X12357700Y-6545180D02*
G75*
G02*
X12327700Y-6545180I-15000J0D01*
G01*
X12327700Y-6545180D02*
G75*
G02*
X12357700Y-6545180I15000J0D01*
G01*
X12357700Y-6677260D02*
G75*
G02*
X12327700Y-6677260I-15000J0D01*
G01*
X12327700Y-6677260D02*
G75*
G02*
X12357700Y-6677260I15000J0D01*
G01*
X12357700Y-6789020D02*
G75*
G02*
X12327700Y-6789020I-15000J0D01*
G01*
X12327700Y-6789020D02*
G75*
G02*
X12357700Y-6789020I15000J0D01*
G01*
X12458460Y-5069840D02*
G75*
G02*
X12428460Y-5069840I-15000J0D01*
G01*
X12428460Y-5069840D02*
G75*
G02*
X12458460Y-5069840I15000J0D01*
G01*
X12459300Y-6082900D02*
G75*
G02*
X12429300Y-6082900I-15000J0D01*
G01*
X12429300Y-6082900D02*
G75*
G02*
X12459300Y-6082900I15000J0D01*
G01*
X12461000Y-5320900D02*
G75*
G02*
X12431000Y-5320900I-15000J0D01*
G01*
X12431000Y-5320900D02*
G75*
G02*
X12461000Y-5320900I15000J0D01*
G01*
X12484700Y-6590900D02*
G75*
G02*
X12454700Y-6590900I-15000J0D01*
G01*
X12454700Y-6590900D02*
G75*
G02*
X12484700Y-6590900I15000J0D01*
G01*
X12489780Y-6987140D02*
G75*
G02*
X12459780Y-6987140I-15000J0D01*
G01*
X12459780Y-6987140D02*
G75*
G02*
X12489780Y-6987140I15000J0D01*
G01*
X12623560Y-5610460D02*
G75*
G02*
X12593560Y-5610460I-15000J0D01*
G01*
X12593560Y-5610460D02*
G75*
G02*
X12623560Y-5610460I15000J0D01*
G01*
X12712460Y-5069840D02*
G75*
G02*
X12682460Y-5069840I-15000J0D01*
G01*
X12682460Y-5069840D02*
G75*
G02*
X12712460Y-5069840I15000J0D01*
G01*
X12713300Y-6082900D02*
G75*
G02*
X12683300Y-6082900I-15000J0D01*
G01*
X12683300Y-6082900D02*
G75*
G02*
X12713300Y-6082900I15000J0D01*
G01*
X12715000Y-5320900D02*
G75*
G02*
X12685000Y-5320900I-15000J0D01*
G01*
X12685000Y-5320900D02*
G75*
G02*
X12715000Y-5320900I15000J0D01*
G01*
X12720920Y-5816200D02*
G75*
G02*
X12690920Y-5816200I-15000J0D01*
G01*
X12690920Y-5816200D02*
G75*
G02*
X12720920Y-5816200I15000J0D01*
G01*
X12731080Y-7175100D02*
G75*
G02*
X12701080Y-7175100I-15000J0D01*
G01*
X12701080Y-7175100D02*
G75*
G02*
X12731080Y-7175100I15000J0D01*
G01*
X12748860Y-6667100D02*
G75*
G02*
X12718860Y-6667100I-15000J0D01*
G01*
X12718860Y-6667100D02*
G75*
G02*
X12748860Y-6667100I15000J0D01*
G01*
X12752200Y-6778860D02*
G75*
G02*
X12722200Y-6778860I-15000J0D01*
G01*
X12722200Y-6778860D02*
G75*
G02*
X12752200Y-6778860I15000J0D01*
G01*
X12814900Y-6260700D02*
G75*
G02*
X12784900Y-6260700I-15000J0D01*
G01*
X12784900Y-6260700D02*
G75*
G02*
X12814900Y-6260700I15000J0D01*
G01*
X12840300Y-6082900D02*
G75*
G02*
X12810300Y-6082900I-15000J0D01*
G01*
X12810300Y-6082900D02*
G75*
G02*
X12840300Y-6082900I15000J0D01*
G01*
X12850460Y-7048100D02*
G75*
G02*
X12820460Y-7048100I-15000J0D01*
G01*
X12820460Y-7048100D02*
G75*
G02*
X12850460Y-7048100I15000J0D01*
G01*
X12877918Y-6186927D02*
G75*
G02*
X12847918Y-6186927I-15000J0D01*
G01*
X12847918Y-6186927D02*
G75*
G02*
X12877918Y-6186927I15000J0D01*
G01*
X12916500Y-6664560D02*
G75*
G02*
X12886500Y-6664560I-15000J0D01*
G01*
X12886500Y-6664560D02*
G75*
G02*
X12916500Y-6664560I15000J0D01*
G01*
X12952060Y-7063340D02*
G75*
G02*
X12922060Y-7063340I-15000J0D01*
G01*
X12922060Y-7063340D02*
G75*
G02*
X12952060Y-7063340I15000J0D01*
G01*
X12966460Y-5069840D02*
G75*
G02*
X12936460Y-5069840I-15000J0D01*
G01*
X12936460Y-5069840D02*
G75*
G02*
X12966460Y-5069840I15000J0D01*
G01*
X12967300Y-7352900D02*
G75*
G02*
X12937300Y-7352900I-15000J0D01*
G01*
X12937300Y-7352900D02*
G75*
G02*
X12967300Y-7352900I15000J0D01*
G01*
X12969000Y-5320900D02*
G75*
G02*
X12939000Y-5320900I-15000J0D01*
G01*
X12939000Y-5320900D02*
G75*
G02*
X12969000Y-5320900I15000J0D01*
G01*
X13027420Y-5579980D02*
G75*
G02*
X12997420Y-5579980I-15000J0D01*
G01*
X12997420Y-5579980D02*
G75*
G02*
X13027420Y-5579980I15000J0D01*
G01*
X13027420Y-5691740D02*
G75*
G02*
X12997420Y-5691740I-15000J0D01*
G01*
X12997420Y-5691740D02*
G75*
G02*
X13027420Y-5691740I15000J0D01*
G01*
X13193360Y-6707740D02*
G75*
G02*
X13163360Y-6707740I-15000J0D01*
G01*
X13163360Y-6707740D02*
G75*
G02*
X13193360Y-6707740I15000J0D01*
G01*
X13220460Y-5069840D02*
G75*
G02*
X13190460Y-5069840I-15000J0D01*
G01*
X13190460Y-5069840D02*
G75*
G02*
X13220460Y-5069840I15000J0D01*
G01*
X13221300Y-5320900D02*
G75*
G02*
X13191300Y-5320900I-15000J0D01*
G01*
X13191300Y-5320900D02*
G75*
G02*
X13221300Y-5320900I15000J0D01*
G01*
X13221300Y-7098900D02*
G75*
G02*
X13191300Y-7098900I-15000J0D01*
G01*
X13191300Y-7098900D02*
G75*
G02*
X13221300Y-7098900I15000J0D01*
G01*
X13221300Y-7352900D02*
G75*
G02*
X13191300Y-7352900I-15000J0D01*
G01*
X13191300Y-7352900D02*
G75*
G02*
X13221300Y-7352900I15000J0D01*
G01*
X13223000Y-7208520D02*
G75*
G02*
X13193000Y-7208520I-15000J0D01*
G01*
X13193000Y-7208520D02*
G75*
G02*
X13223000Y-7208520I15000J0D01*
G01*
X13301740Y-5582920D02*
G75*
G02*
X13271740Y-5582920I-15000J0D01*
G01*
X13271740Y-5582920D02*
G75*
G02*
X13301740Y-5582920I15000J0D01*
G01*
X13316980Y-7070960D02*
G75*
G02*
X13286980Y-7070960I-15000J0D01*
G01*
X13286980Y-7070960D02*
G75*
G02*
X13316980Y-7070960I15000J0D01*
G01*
X13434660Y-6927060D02*
G75*
G02*
X13404660Y-6927060I-15000J0D01*
G01*
X13404660Y-6927060D02*
G75*
G02*
X13434660Y-6927060I15000J0D01*
G01*
X13474460Y-5069840D02*
G75*
G02*
X13444460Y-5069840I-15000J0D01*
G01*
X13444460Y-5069840D02*
G75*
G02*
X13474460Y-5069840I15000J0D01*
G01*
X13475300Y-7352900D02*
G75*
G02*
X13445300Y-7352900I-15000J0D01*
G01*
X13445300Y-7352900D02*
G75*
G02*
X13475300Y-7352900I15000J0D01*
G01*
X13477000Y-5320900D02*
G75*
G02*
X13447000Y-5320900I-15000J0D01*
G01*
X13447000Y-5320900D02*
G75*
G02*
X13477000Y-5320900I15000J0D01*
G01*
X13559120Y-6258160D02*
G75*
G02*
X13529120Y-6258160I-15000J0D01*
G01*
X13529120Y-6258160D02*
G75*
G02*
X13559120Y-6258160I15000J0D01*
G01*
X13576060Y-5582920D02*
G75*
G02*
X13546060Y-5582920I-15000J0D01*
G01*
X13546060Y-5582920D02*
G75*
G02*
X13576060Y-5582920I15000J0D01*
G01*
X13611620Y-6927060D02*
G75*
G02*
X13581620Y-6927060I-15000J0D01*
G01*
X13581620Y-6927060D02*
G75*
G02*
X13611620Y-6927060I15000J0D01*
G01*
X13678500Y-5879700D02*
G75*
G02*
X13648500Y-5879700I-15000J0D01*
G01*
X13648500Y-5879700D02*
G75*
G02*
X13678500Y-5879700I15000J0D01*
G01*
X13725920Y-6927060D02*
G75*
G02*
X13695920Y-6927060I-15000J0D01*
G01*
X13695920Y-6927060D02*
G75*
G02*
X13725920Y-6927060I15000J0D01*
G01*
X13728460Y-5069840D02*
G75*
G02*
X13698460Y-5069840I-15000J0D01*
G01*
X13698460Y-5069840D02*
G75*
G02*
X13728460Y-5069840I15000J0D01*
G01*
X13729300Y-7352900D02*
G75*
G02*
X13699300Y-7352900I-15000J0D01*
G01*
X13699300Y-7352900D02*
G75*
G02*
X13729300Y-7352900I15000J0D01*
G01*
X13731000Y-5320900D02*
G75*
G02*
X13701000Y-5320900I-15000J0D01*
G01*
X13701000Y-5320900D02*
G75*
G02*
X13731000Y-5320900I15000J0D01*
G01*
X13773106Y-5690674D02*
G75*
G02*
X13743106Y-5690674I-15000J0D01*
G01*
X13743106Y-5690674D02*
G75*
G02*
X13773106Y-5690674I15000J0D01*
G01*
X13782640Y-5813660D02*
G75*
G02*
X13752640Y-5813660I-15000J0D01*
G01*
X13752640Y-5813660D02*
G75*
G02*
X13782640Y-5813660I15000J0D01*
G01*
X13886699Y-6799439D02*
G75*
G02*
X13856699Y-6799439I-15000J0D01*
G01*
X13856699Y-6799439D02*
G75*
G02*
X13886699Y-6799439I15000J0D01*
G01*
X13955360Y-6016860D02*
G75*
G02*
X13925360Y-6016860I-15000J0D01*
G01*
X13925360Y-6016860D02*
G75*
G02*
X13955360Y-6016860I15000J0D01*
G01*
X13955360Y-6128620D02*
G75*
G02*
X13925360Y-6128620I-15000J0D01*
G01*
X13925360Y-6128620D02*
G75*
G02*
X13955360Y-6128620I15000J0D01*
G01*
X13955360Y-6646780D02*
G75*
G02*
X13925360Y-6646780I-15000J0D01*
G01*
X13925360Y-6646780D02*
G75*
G02*
X13955360Y-6646780I15000J0D01*
G01*
X13975680Y-7352900D02*
G75*
G02*
X13945680Y-7352900I-15000J0D01*
G01*
X13945680Y-7352900D02*
G75*
G02*
X13975680Y-7352900I15000J0D01*
G01*
X13982460Y-5069840D02*
G75*
G02*
X13952460Y-5069840I-15000J0D01*
G01*
X13952460Y-5069840D02*
G75*
G02*
X13982460Y-5069840I15000J0D01*
G01*
X13985000Y-5320900D02*
G75*
G02*
X13955000Y-5320900I-15000J0D01*
G01*
X13955000Y-5320900D02*
G75*
G02*
X13985000Y-5320900I15000J0D01*
G01*
X14236460Y-5069840D02*
G75*
G02*
X14206460Y-5069840I-15000J0D01*
G01*
X14206460Y-5069840D02*
G75*
G02*
X14236460Y-5069840I15000J0D01*
G01*
X14237300Y-6336900D02*
G75*
G02*
X14207300Y-6336900I-15000J0D01*
G01*
X14207300Y-6336900D02*
G75*
G02*
X14237300Y-6336900I15000J0D01*
G01*
X14237300Y-7352900D02*
G75*
G02*
X14207300Y-7352900I-15000J0D01*
G01*
X14207300Y-7352900D02*
G75*
G02*
X14237300Y-7352900I15000J0D01*
G01*
X14341440Y-5976220D02*
G75*
G02*
X14311440Y-5976220I-15000J0D01*
G01*
X14311440Y-5976220D02*
G75*
G02*
X14341440Y-5976220I15000J0D01*
G01*
X14404780Y-6212060D02*
G75*
G02*
X14374780Y-6212060I-15000J0D01*
G01*
X14374780Y-6212060D02*
G75*
G02*
X14404780Y-6212060I15000J0D01*
G01*
X14404780Y-6506180D02*
G75*
G02*
X14374780Y-6506180I-15000J0D01*
G01*
X14374780Y-6506180D02*
G75*
G02*
X14404780Y-6506180I15000J0D01*
G01*
X14490460Y-5069840D02*
G75*
G02*
X14460460Y-5069840I-15000J0D01*
G01*
X14460460Y-5069840D02*
G75*
G02*
X14490460Y-5069840I15000J0D01*
G01*
X14491300Y-5320900D02*
G75*
G02*
X14461300Y-5320900I-15000J0D01*
G01*
X14461300Y-5320900D02*
G75*
G02*
X14491300Y-5320900I15000J0D01*
G01*
X14491300Y-7352900D02*
G75*
G02*
X14461300Y-7352900I-15000J0D01*
G01*
X14461300Y-7352900D02*
G75*
G02*
X14491300Y-7352900I15000J0D01*
G01*
X14493000Y-6629400D02*
G75*
G02*
X14463000Y-6629400I-15000J0D01*
G01*
X14463000Y-6629400D02*
G75*
G02*
X14493000Y-6629400I15000J0D01*
G01*
X14505700Y-6949440D02*
G75*
G02*
X14475700Y-6949440I-15000J0D01*
G01*
X14475700Y-6949440D02*
G75*
G02*
X14505700Y-6949440I15000J0D01*
G01*
X14536340Y-5948820D02*
G75*
G02*
X14506340Y-5948820I-15000J0D01*
G01*
X14506340Y-5948820D02*
G75*
G02*
X14536340Y-5948820I15000J0D01*
G01*
X14647940Y-5821680D02*
G75*
G02*
X14617940Y-5821680I-15000J0D01*
G01*
X14617940Y-5821680D02*
G75*
G02*
X14647940Y-5821680I15000J0D01*
G01*
X14663180Y-6629400D02*
G75*
G02*
X14633180Y-6629400I-15000J0D01*
G01*
X14633180Y-6629400D02*
G75*
G02*
X14663180Y-6629400I15000J0D01*
G01*
X14744460Y-5069840D02*
G75*
G02*
X14714460Y-5069840I-15000J0D01*
G01*
X14714460Y-5069840D02*
G75*
G02*
X14744460Y-5069840I15000J0D01*
G01*
X14745300Y-5320900D02*
G75*
G02*
X14715300Y-5320900I-15000J0D01*
G01*
X14715300Y-5320900D02*
G75*
G02*
X14745300Y-5320900I15000J0D01*
G01*
X14745300Y-7352900D02*
G75*
G02*
X14715300Y-7352900I-15000J0D01*
G01*
X14715300Y-7352900D02*
G75*
G02*
X14745300Y-7352900I15000J0D01*
G01*
X14785260Y-6908400D02*
G75*
G02*
X14755260Y-6908400I-15000J0D01*
G01*
X14755260Y-6908400D02*
G75*
G02*
X14785260Y-6908400I15000J0D01*
G01*
X14885000Y-6623920D02*
G75*
G02*
X14855000Y-6623920I-15000J0D01*
G01*
X14855000Y-6623920D02*
G75*
G02*
X14885000Y-6623920I15000J0D01*
G01*
X14998460Y-5069840D02*
G75*
G02*
X14968460Y-5069840I-15000J0D01*
G01*
X14968460Y-5069840D02*
G75*
G02*
X14998460Y-5069840I15000J0D01*
G01*
X14999300Y-5320900D02*
G75*
G02*
X14969300Y-5320900I-15000J0D01*
G01*
X14969300Y-5320900D02*
G75*
G02*
X14999300Y-5320900I15000J0D01*
G01*
X14999300Y-7098900D02*
G75*
G02*
X14969300Y-7098900I-15000J0D01*
G01*
X14969300Y-7098900D02*
G75*
G02*
X14999300Y-7098900I15000J0D01*
G01*
X15054500Y-5649100D02*
G75*
G02*
X15024500Y-5649100I-15000J0D01*
G01*
X15024500Y-5649100D02*
G75*
G02*
X15054500Y-5649100I15000J0D01*
G01*
X15130700Y-6000980D02*
G75*
G02*
X15100700Y-6000980I-15000J0D01*
G01*
X15100700Y-6000980D02*
G75*
G02*
X15130700Y-6000980I15000J0D01*
G01*
X15161860Y-6794100D02*
G75*
G02*
X15131860Y-6794100I-15000J0D01*
G01*
X15131860Y-6794100D02*
G75*
G02*
X15161860Y-6794100I15000J0D01*
G01*
X15250760Y-5833980D02*
G75*
G02*
X15220760Y-5833980I-15000J0D01*
G01*
X15220760Y-5833980D02*
G75*
G02*
X15250760Y-5833980I15000J0D01*
G01*
X15252460Y-5069840D02*
G75*
G02*
X15222460Y-5069840I-15000J0D01*
G01*
X15222460Y-5069840D02*
G75*
G02*
X15252460Y-5069840I15000J0D01*
G01*
X15252460Y-5730240D02*
G75*
G02*
X15222460Y-5730240I-15000J0D01*
G01*
X15222460Y-5730240D02*
G75*
G02*
X15252460Y-5730240I15000J0D01*
G01*
X15253300Y-5320900D02*
G75*
G02*
X15223300Y-5320900I-15000J0D01*
G01*
X15223300Y-5320900D02*
G75*
G02*
X15253300Y-5320900I15000J0D01*
G01*
X15253300Y-5574900D02*
G75*
G02*
X15223300Y-5574900I-15000J0D01*
G01*
X15223300Y-5574900D02*
G75*
G02*
X15253300Y-5574900I15000J0D01*
G01*
X15253300Y-7098900D02*
G75*
G02*
X15223300Y-7098900I-15000J0D01*
G01*
X15223300Y-7098900D02*
G75*
G02*
X15253300Y-7098900I15000J0D01*
G01*
X15253300Y-7352900D02*
G75*
G02*
X15223300Y-7352900I-15000J0D01*
G01*
X15223300Y-7352900D02*
G75*
G02*
X15253300Y-7352900I15000J0D01*
G01*
X15369460Y-6062580D02*
G75*
G02*
X15339460Y-6062580I-15000J0D01*
G01*
X15339460Y-6062580D02*
G75*
G02*
X15369460Y-6062580I15000J0D01*
G01*
X15441260Y-6516840D02*
G75*
G02*
X15411260Y-6516840I-15000J0D01*
G01*
X15411260Y-6516840D02*
G75*
G02*
X15441260Y-6516840I15000J0D01*
G01*
X15443800Y-6293320D02*
G75*
G02*
X15413800Y-6293320I-15000J0D01*
G01*
X15413800Y-6293320D02*
G75*
G02*
X15443800Y-6293320I15000J0D01*
G01*
X15506460Y-5069840D02*
G75*
G02*
X15476460Y-5069840I-15000J0D01*
G01*
X15476460Y-5069840D02*
G75*
G02*
X15506460Y-5069840I15000J0D01*
G01*
X15507300Y-5320900D02*
G75*
G02*
X15477300Y-5320900I-15000J0D01*
G01*
X15477300Y-5320900D02*
G75*
G02*
X15507300Y-5320900I15000J0D01*
G01*
X15507300Y-7098900D02*
G75*
G02*
X15477300Y-7098900I-15000J0D01*
G01*
X15477300Y-7098900D02*
G75*
G02*
X15507300Y-7098900I15000J0D01*
G01*
X15507300Y-7352900D02*
G75*
G02*
X15477300Y-7352900I-15000J0D01*
G01*
X15477300Y-7352900D02*
G75*
G02*
X15507300Y-7352900I15000J0D01*
G01*
X15542180Y-6979520D02*
G75*
G02*
X15512180Y-6979520I-15000J0D01*
G01*
X15512180Y-6979520D02*
G75*
G02*
X15542180Y-6979520I15000J0D01*
G01*
X15547100Y-6543040D02*
G75*
G02*
X15517100Y-6543040I-15000J0D01*
G01*
X15517100Y-6543040D02*
G75*
G02*
X15547100Y-6543040I15000J0D01*
G01*
X15574940Y-6275940D02*
G75*
G02*
X15544940Y-6275940I-15000J0D01*
G01*
X15544940Y-6275940D02*
G75*
G02*
X15574940Y-6275940I15000J0D01*
G01*
X15760460Y-5069840D02*
G75*
G02*
X15730460Y-5069840I-15000J0D01*
G01*
X15730460Y-5069840D02*
G75*
G02*
X15760460Y-5069840I15000J0D01*
G01*
X15761300Y-5320900D02*
G75*
G02*
X15731300Y-5320900I-15000J0D01*
G01*
X15731300Y-5320900D02*
G75*
G02*
X15761300Y-5320900I15000J0D01*
G01*
X15761300Y-6590900D02*
G75*
G02*
X15731300Y-6590900I-15000J0D01*
G01*
X15731300Y-6590900D02*
G75*
G02*
X15761300Y-6590900I15000J0D01*
G01*
X15761300Y-6844900D02*
G75*
G02*
X15731300Y-6844900I-15000J0D01*
G01*
X15731300Y-6844900D02*
G75*
G02*
X15761300Y-6844900I15000J0D01*
G01*
X15761300Y-7098900D02*
G75*
G02*
X15731300Y-7098900I-15000J0D01*
G01*
X15731300Y-7098900D02*
G75*
G02*
X15761300Y-7098900I15000J0D01*
G01*
X15761300Y-7352900D02*
G75*
G02*
X15731300Y-7352900I-15000J0D01*
G01*
X15731300Y-7352900D02*
G75*
G02*
X15761300Y-7352900I15000J0D01*
G01*
X15895920Y-5652740D02*
G75*
G02*
X15865920Y-5652740I-15000J0D01*
G01*
X15865920Y-5652740D02*
G75*
G02*
X15895920Y-5652740I15000J0D01*
G01*
X16014460Y-5069840D02*
G75*
G02*
X15984460Y-5069840I-15000J0D01*
G01*
X15984460Y-5069840D02*
G75*
G02*
X16014460Y-5069840I15000J0D01*
G01*
X16015300Y-5320900D02*
G75*
G02*
X15985300Y-5320900I-15000J0D01*
G01*
X15985300Y-5320900D02*
G75*
G02*
X16015300Y-5320900I15000J0D01*
G01*
X16015300Y-5574900D02*
G75*
G02*
X15985300Y-5574900I-15000J0D01*
G01*
X15985300Y-5574900D02*
G75*
G02*
X16015300Y-5574900I15000J0D01*
G01*
X16015300Y-6590900D02*
G75*
G02*
X15985300Y-6590900I-15000J0D01*
G01*
X15985300Y-6590900D02*
G75*
G02*
X16015300Y-6590900I15000J0D01*
G01*
X16015300Y-6844900D02*
G75*
G02*
X15985300Y-6844900I-15000J0D01*
G01*
X15985300Y-6844900D02*
G75*
G02*
X16015300Y-6844900I15000J0D01*
G01*
X16015300Y-7098900D02*
G75*
G02*
X15985300Y-7098900I-15000J0D01*
G01*
X15985300Y-7098900D02*
G75*
G02*
X16015300Y-7098900I15000J0D01*
G01*
X16015300Y-7352900D02*
G75*
G02*
X15985300Y-7352900I-15000J0D01*
G01*
X15985300Y-7352900D02*
G75*
G02*
X16015300Y-7352900I15000J0D01*
G01*
X16066100Y-6092420D02*
G75*
G02*
X16036100Y-6092420I-15000J0D01*
G01*
X16036100Y-6092420D02*
G75*
G02*
X16066100Y-6092420I15000J0D01*
G01*
X16268460Y-5069840D02*
G75*
G02*
X16238460Y-5069840I-15000J0D01*
G01*
X16238460Y-5069840D02*
G75*
G02*
X16268460Y-5069840I15000J0D01*
G01*
X16269300Y-5574900D02*
G75*
G02*
X16239300Y-5574900I-15000J0D01*
G01*
X16239300Y-5574900D02*
G75*
G02*
X16269300Y-5574900I15000J0D01*
G01*
X16269300Y-6082900D02*
G75*
G02*
X16239300Y-6082900I-15000J0D01*
G01*
X16239300Y-6082900D02*
G75*
G02*
X16269300Y-6082900I15000J0D01*
G01*
X16269300Y-6844900D02*
G75*
G02*
X16239300Y-6844900I-15000J0D01*
G01*
X16239300Y-6844900D02*
G75*
G02*
X16269300Y-6844900I15000J0D01*
G01*
X16269300Y-7352900D02*
G75*
G02*
X16239300Y-7352900I-15000J0D01*
G01*
X16239300Y-7352900D02*
G75*
G02*
X16269300Y-7352900I15000J0D01*
G01*
X16523300Y-5574900D02*
G75*
G02*
X16493300Y-5574900I-15000J0D01*
G01*
X16493300Y-5574900D02*
G75*
G02*
X16523300Y-5574900I15000J0D01*
G01*
X16523300Y-6844900D02*
G75*
G02*
X16493300Y-6844900I-15000J0D01*
G01*
X16493300Y-6844900D02*
G75*
G02*
X16523300Y-6844900I15000J0D01*
G01*
X16776460Y-5069840D02*
G75*
G02*
X16746460Y-5069840I-15000J0D01*
G01*
X16746460Y-5069840D02*
G75*
G02*
X16776460Y-5069840I15000J0D01*
G01*
X16777300Y-5574900D02*
G75*
G02*
X16747300Y-5574900I-15000J0D01*
G01*
X16747300Y-5574900D02*
G75*
G02*
X16777300Y-5574900I15000J0D01*
G01*
X16777300Y-6844900D02*
G75*
G02*
X16747300Y-6844900I-15000J0D01*
G01*
X16747300Y-6844900D02*
G75*
G02*
X16777300Y-6844900I15000J0D01*
G01*
X16777300Y-7098900D02*
G75*
G02*
X16747300Y-7098900I-15000J0D01*
G01*
X16747300Y-7098900D02*
G75*
G02*
X16777300Y-7098900I15000J0D01*
G01*
X16777300Y-7352900D02*
G75*
G02*
X16747300Y-7352900I-15000J0D01*
G01*
X16747300Y-7352900D02*
G75*
G02*
X16777300Y-7352900I15000J0D01*
G01*
X16517620Y-5877750D02*
X16517620Y-5923750D01*
X16494620Y-5900750D02*
X16540620Y-5900750D01*
X16517620Y-6576250D02*
X16517620Y-6622250D01*
X16494620Y-6599250D02*
X16540620Y-6599250D01*
X11538713Y-5839213D02*
X11538713Y-5796787D01*
X11496287Y-5796787D01*
X11496287Y-5839213D01*
X11538713Y-5839213D01*
X11557500Y-5788000D02*
X11477500Y-5788000D01*
X11477500Y-5848000D02*
G75*
G02*
X11477500Y-5788000I0J30000D01*
G01*
X11477500Y-5848000D02*
X11557500Y-5848000D01*
X11557500Y-5848000D02*
G75*
G03*
X11557500Y-5788000I0J30000D01*
G01*
X11538713Y-6703213D02*
X11538713Y-6660787D01*
X11496287Y-6660787D01*
X11496287Y-6703213D01*
X11538713Y-6703213D01*
X11557500Y-6652000D02*
X11477500Y-6652000D01*
X11477500Y-6712000D02*
G75*
G02*
X11477500Y-6652000I0J30000D01*
G01*
X11477500Y-6712000D02*
X11557500Y-6712000D01*
X11557500Y-6712000D02*
G75*
G03*
X11557500Y-6652000I0J30000D01*
G01*
X11956713Y-5839213D02*
X11956713Y-5796787D01*
X11914287Y-5796787D01*
X11914287Y-5839213D01*
X11956713Y-5839213D01*
X11990500Y-5788000D02*
X11880500Y-5788000D01*
X11880500Y-5848000D02*
G75*
G02*
X11880500Y-5788000I0J30000D01*
G01*
X11880500Y-5848000D02*
X11990500Y-5848000D01*
X11990500Y-5848000D02*
G75*
G03*
X11990500Y-5788000I0J30000D01*
G01*
X11956713Y-6703213D02*
X11956713Y-6660787D01*
X11914287Y-6660787D01*
X11914287Y-6703213D01*
X11956713Y-6703213D01*
X11990500Y-6652000D02*
X11880500Y-6652000D01*
X11880500Y-6712000D02*
G75*
G02*
X11880500Y-6652000I0J30000D01*
G01*
X11880500Y-6712000D02*
X11990500Y-6712000D01*
X11990500Y-6712000D02*
G75*
G03*
X11990500Y-6652000I0J30000D01*
G01*
D12*
X11810000Y-5380000D02*
X11940000Y-5250000D01*
X11810000Y-5120000D01*
X11680000Y-5250000D01*
X11810000Y-5380000D01*
X11810000Y-7380000D02*
X11940000Y-7250000D01*
X11810000Y-7120000D01*
X11680000Y-7250000D01*
X11810000Y-7380000D01*
X16570000Y-5380000D02*
X16700000Y-5250000D01*
X16570000Y-5120000D01*
X16440000Y-5250000D01*
X16570000Y-5380000D01*
X16570000Y-7380000D02*
X16700000Y-7250000D01*
X16570000Y-7120000D01*
X16440000Y-7250000D01*
X16570000Y-7380000D01*
D10*
X11640777Y-7821484D02*
X11640777Y-7621484D01*
X11640777Y-7621484D02*
X11688396Y-7621484D01*
X11688396Y-7621484D02*
X11716967Y-7631008D01*
X11716967Y-7631008D02*
X11736015Y-7650055D01*
X11736015Y-7650055D02*
X11745539Y-7669103D01*
X11745539Y-7669103D02*
X11755062Y-7707198D01*
X11755062Y-7707198D02*
X11755062Y-7735769D01*
X11755062Y-7735769D02*
X11745539Y-7773865D01*
X11745539Y-7773865D02*
X11736015Y-7792912D01*
X11736015Y-7792912D02*
X11716967Y-7811960D01*
X11716967Y-7811960D02*
X11688396Y-7821484D01*
X11688396Y-7821484D02*
X11640777Y-7821484D01*
X11840777Y-7821484D02*
X11840777Y-7688150D01*
X11840777Y-7726246D02*
X11850301Y-7707198D01*
X11850301Y-7707198D02*
X11859824Y-7697674D01*
X11859824Y-7697674D02*
X11878872Y-7688150D01*
X11878872Y-7688150D02*
X11897920Y-7688150D01*
X11964586Y-7821484D02*
X11964586Y-7688150D01*
X11964586Y-7621484D02*
X11955062Y-7631008D01*
X11955062Y-7631008D02*
X11964586Y-7640531D01*
X11964586Y-7640531D02*
X11974110Y-7631008D01*
X11974110Y-7631008D02*
X11964586Y-7621484D01*
X11964586Y-7621484D02*
X11964586Y-7640531D01*
X12088396Y-7821484D02*
X12069348Y-7811960D01*
X12069348Y-7811960D02*
X12059824Y-7792912D01*
X12059824Y-7792912D02*
X12059824Y-7621484D01*
X12193158Y-7821484D02*
X12174110Y-7811960D01*
X12174110Y-7811960D02*
X12164586Y-7792912D01*
X12164586Y-7792912D02*
X12164586Y-7621484D01*
X12421729Y-7821484D02*
X12421729Y-7621484D01*
X12421729Y-7621484D02*
X12488396Y-7764341D01*
X12488396Y-7764341D02*
X12555062Y-7621484D01*
X12555062Y-7621484D02*
X12555062Y-7821484D01*
X12736015Y-7821484D02*
X12736015Y-7716722D01*
X12736015Y-7716722D02*
X12726491Y-7697674D01*
X12726491Y-7697674D02*
X12707443Y-7688150D01*
X12707443Y-7688150D02*
X12669348Y-7688150D01*
X12669348Y-7688150D02*
X12650301Y-7697674D01*
X12736015Y-7811960D02*
X12716967Y-7821484D01*
X12716967Y-7821484D02*
X12669348Y-7821484D01*
X12669348Y-7821484D02*
X12650301Y-7811960D01*
X12650301Y-7811960D02*
X12640777Y-7792912D01*
X12640777Y-7792912D02*
X12640777Y-7773865D01*
X12640777Y-7773865D02*
X12650301Y-7754817D01*
X12650301Y-7754817D02*
X12669348Y-7745293D01*
X12669348Y-7745293D02*
X12716967Y-7745293D01*
X12716967Y-7745293D02*
X12736015Y-7735769D01*
X12831253Y-7688150D02*
X12831253Y-7888150D01*
X12831253Y-7697674D02*
X12850301Y-7688150D01*
X12850301Y-7688150D02*
X12888396Y-7688150D01*
X12888396Y-7688150D02*
X12907443Y-7697674D01*
X12907443Y-7697674D02*
X12916967Y-7707198D01*
X12916967Y-7707198D02*
X12926491Y-7726246D01*
X12926491Y-7726246D02*
X12926491Y-7783388D01*
X12926491Y-7783388D02*
X12916967Y-7802436D01*
X12916967Y-7802436D02*
X12907443Y-7811960D01*
X12907443Y-7811960D02*
X12888396Y-7821484D01*
X12888396Y-7821484D02*
X12850301Y-7821484D01*
X12850301Y-7821484D02*
X12831253Y-7811960D01*
X13012205Y-7802436D02*
X13021729Y-7811960D01*
X13021729Y-7811960D02*
X13012205Y-7821484D01*
X13012205Y-7821484D02*
X13002682Y-7811960D01*
X13002682Y-7811960D02*
X13012205Y-7802436D01*
X13012205Y-7802436D02*
X13012205Y-7821484D01*
X13012205Y-7697674D02*
X13021729Y-7707198D01*
X13021729Y-7707198D02*
X13012205Y-7716722D01*
X13012205Y-7716722D02*
X13002682Y-7707198D01*
X13002682Y-7707198D02*
X13012205Y-7697674D01*
X13012205Y-7697674D02*
X13012205Y-7716722D01*
D11*
X11360000Y-8140000D02*
X11380000Y-8160000D01*
X11380000Y-8140000D02*
X11360000Y-8160000D01*
D10*
X11678872Y-8041484D02*
X11697920Y-8041484D01*
X11697920Y-8041484D02*
X11716967Y-8051008D01*
X11716967Y-8051008D02*
X11726491Y-8060531D01*
X11726491Y-8060531D02*
X11736015Y-8079579D01*
X11736015Y-8079579D02*
X11745539Y-8117674D01*
X11745539Y-8117674D02*
X11745539Y-8165293D01*
X11745539Y-8165293D02*
X11736015Y-8203388D01*
X11736015Y-8203388D02*
X11726491Y-8222436D01*
X11726491Y-8222436D02*
X11716967Y-8231960D01*
X11716967Y-8231960D02*
X11697920Y-8241484D01*
X11697920Y-8241484D02*
X11678872Y-8241484D01*
X11678872Y-8241484D02*
X11659824Y-8231960D01*
X11659824Y-8231960D02*
X11650301Y-8222436D01*
X11650301Y-8222436D02*
X11640777Y-8203388D01*
X11640777Y-8203388D02*
X11631253Y-8165293D01*
X11631253Y-8165293D02*
X11631253Y-8117674D01*
X11631253Y-8117674D02*
X11640777Y-8079579D01*
X11640777Y-8079579D02*
X11650301Y-8060531D01*
X11650301Y-8060531D02*
X11659824Y-8051008D01*
X11659824Y-8051008D02*
X11678872Y-8041484D01*
X11831253Y-8222436D02*
X11840777Y-8231960D01*
X11840777Y-8231960D02*
X11831253Y-8241484D01*
X11831253Y-8241484D02*
X11821729Y-8231960D01*
X11821729Y-8231960D02*
X11831253Y-8222436D01*
X11831253Y-8222436D02*
X11831253Y-8241484D01*
X11916967Y-8060531D02*
X11926491Y-8051008D01*
X11926491Y-8051008D02*
X11945539Y-8041484D01*
X11945539Y-8041484D02*
X11993158Y-8041484D01*
X11993158Y-8041484D02*
X12012205Y-8051008D01*
X12012205Y-8051008D02*
X12021729Y-8060531D01*
X12021729Y-8060531D02*
X12031253Y-8079579D01*
X12031253Y-8079579D02*
X12031253Y-8098627D01*
X12031253Y-8098627D02*
X12021729Y-8127198D01*
X12021729Y-8127198D02*
X11907443Y-8241484D01*
X11907443Y-8241484D02*
X12031253Y-8241484D01*
X12155062Y-8041484D02*
X12174110Y-8041484D01*
X12174110Y-8041484D02*
X12193158Y-8051008D01*
X12193158Y-8051008D02*
X12202682Y-8060531D01*
X12202682Y-8060531D02*
X12212205Y-8079579D01*
X12212205Y-8079579D02*
X12221729Y-8117674D01*
X12221729Y-8117674D02*
X12221729Y-8165293D01*
X12221729Y-8165293D02*
X12212205Y-8203388D01*
X12212205Y-8203388D02*
X12202682Y-8222436D01*
X12202682Y-8222436D02*
X12193158Y-8231960D01*
X12193158Y-8231960D02*
X12174110Y-8241484D01*
X12174110Y-8241484D02*
X12155062Y-8241484D01*
X12155062Y-8241484D02*
X12136015Y-8231960D01*
X12136015Y-8231960D02*
X12126491Y-8222436D01*
X12126491Y-8222436D02*
X12116967Y-8203388D01*
X12116967Y-8203388D02*
X12107443Y-8165293D01*
X12107443Y-8165293D02*
X12107443Y-8117674D01*
X12107443Y-8117674D02*
X12116967Y-8079579D01*
X12116967Y-8079579D02*
X12126491Y-8060531D01*
X12126491Y-8060531D02*
X12136015Y-8051008D01*
X12136015Y-8051008D02*
X12155062Y-8041484D01*
X12345539Y-8041484D02*
X12364586Y-8041484D01*
X12364586Y-8041484D02*
X12383634Y-8051008D01*
X12383634Y-8051008D02*
X12393158Y-8060531D01*
X12393158Y-8060531D02*
X12402682Y-8079579D01*
X12402682Y-8079579D02*
X12412205Y-8117674D01*
X12412205Y-8117674D02*
X12412205Y-8165293D01*
X12412205Y-8165293D02*
X12402682Y-8203388D01*
X12402682Y-8203388D02*
X12393158Y-8222436D01*
X12393158Y-8222436D02*
X12383634Y-8231960D01*
X12383634Y-8231960D02*
X12364586Y-8241484D01*
X12364586Y-8241484D02*
X12345539Y-8241484D01*
X12345539Y-8241484D02*
X12326491Y-8231960D01*
X12326491Y-8231960D02*
X12316967Y-8222436D01*
X12316967Y-8222436D02*
X12307443Y-8203388D01*
X12307443Y-8203388D02*
X12297920Y-8165293D01*
X12297920Y-8165293D02*
X12297920Y-8117674D01*
X12297920Y-8117674D02*
X12307443Y-8079579D01*
X12307443Y-8079579D02*
X12316967Y-8060531D01*
X12316967Y-8060531D02*
X12326491Y-8051008D01*
X12326491Y-8051008D02*
X12345539Y-8041484D01*
X12497920Y-8241484D02*
X12497920Y-8108150D01*
X12497920Y-8127198D02*
X12507443Y-8117674D01*
X12507443Y-8117674D02*
X12526491Y-8108150D01*
X12526491Y-8108150D02*
X12555063Y-8108150D01*
X12555063Y-8108150D02*
X12574110Y-8117674D01*
X12574110Y-8117674D02*
X12583634Y-8136722D01*
X12583634Y-8136722D02*
X12583634Y-8241484D01*
X12583634Y-8136722D02*
X12593158Y-8117674D01*
X12593158Y-8117674D02*
X12612205Y-8108150D01*
X12612205Y-8108150D02*
X12640777Y-8108150D01*
X12640777Y-8108150D02*
X12659824Y-8117674D01*
X12659824Y-8117674D02*
X12669348Y-8136722D01*
X12669348Y-8136722D02*
X12669348Y-8241484D01*
X12764586Y-8241484D02*
X12764586Y-8108150D01*
X12764586Y-8127198D02*
X12774110Y-8117674D01*
X12774110Y-8117674D02*
X12793158Y-8108150D01*
X12793158Y-8108150D02*
X12821729Y-8108150D01*
X12821729Y-8108150D02*
X12840777Y-8117674D01*
X12840777Y-8117674D02*
X12850301Y-8136722D01*
X12850301Y-8136722D02*
X12850301Y-8241484D01*
X12850301Y-8136722D02*
X12859824Y-8117674D01*
X12859824Y-8117674D02*
X12878872Y-8108150D01*
X12878872Y-8108150D02*
X12907443Y-8108150D01*
X12907443Y-8108150D02*
X12926491Y-8117674D01*
X12926491Y-8117674D02*
X12936015Y-8136722D01*
X12936015Y-8136722D02*
X12936015Y-8241484D01*
X13326491Y-8031960D02*
X13155063Y-8289103D01*
X13583634Y-8041484D02*
X13602682Y-8041484D01*
X13602682Y-8041484D02*
X13621729Y-8051008D01*
X13621729Y-8051008D02*
X13631253Y-8060531D01*
X13631253Y-8060531D02*
X13640777Y-8079579D01*
X13640777Y-8079579D02*
X13650301Y-8117674D01*
X13650301Y-8117674D02*
X13650301Y-8165293D01*
X13650301Y-8165293D02*
X13640777Y-8203388D01*
X13640777Y-8203388D02*
X13631253Y-8222436D01*
X13631253Y-8222436D02*
X13621729Y-8231960D01*
X13621729Y-8231960D02*
X13602682Y-8241484D01*
X13602682Y-8241484D02*
X13583634Y-8241484D01*
X13583634Y-8241484D02*
X13564586Y-8231960D01*
X13564586Y-8231960D02*
X13555063Y-8222436D01*
X13555063Y-8222436D02*
X13545539Y-8203388D01*
X13545539Y-8203388D02*
X13536015Y-8165293D01*
X13536015Y-8165293D02*
X13536015Y-8117674D01*
X13536015Y-8117674D02*
X13545539Y-8079579D01*
X13545539Y-8079579D02*
X13555063Y-8060531D01*
X13555063Y-8060531D02*
X13564586Y-8051008D01*
X13564586Y-8051008D02*
X13583634Y-8041484D01*
X13736015Y-8222436D02*
X13745539Y-8231960D01*
X13745539Y-8231960D02*
X13736015Y-8241484D01*
X13736015Y-8241484D02*
X13726491Y-8231960D01*
X13726491Y-8231960D02*
X13736015Y-8222436D01*
X13736015Y-8222436D02*
X13736015Y-8241484D01*
X13869348Y-8041484D02*
X13888396Y-8041484D01*
X13888396Y-8041484D02*
X13907444Y-8051008D01*
X13907444Y-8051008D02*
X13916967Y-8060531D01*
X13916967Y-8060531D02*
X13926491Y-8079579D01*
X13926491Y-8079579D02*
X13936015Y-8117674D01*
X13936015Y-8117674D02*
X13936015Y-8165293D01*
X13936015Y-8165293D02*
X13926491Y-8203388D01*
X13926491Y-8203388D02*
X13916967Y-8222436D01*
X13916967Y-8222436D02*
X13907444Y-8231960D01*
X13907444Y-8231960D02*
X13888396Y-8241484D01*
X13888396Y-8241484D02*
X13869348Y-8241484D01*
X13869348Y-8241484D02*
X13850301Y-8231960D01*
X13850301Y-8231960D02*
X13840777Y-8222436D01*
X13840777Y-8222436D02*
X13831253Y-8203388D01*
X13831253Y-8203388D02*
X13821729Y-8165293D01*
X13821729Y-8165293D02*
X13821729Y-8117674D01*
X13821729Y-8117674D02*
X13831253Y-8079579D01*
X13831253Y-8079579D02*
X13840777Y-8060531D01*
X13840777Y-8060531D02*
X13850301Y-8051008D01*
X13850301Y-8051008D02*
X13869348Y-8041484D01*
X14059825Y-8041484D02*
X14078872Y-8041484D01*
X14078872Y-8041484D02*
X14097920Y-8051008D01*
X14097920Y-8051008D02*
X14107444Y-8060531D01*
X14107444Y-8060531D02*
X14116967Y-8079579D01*
X14116967Y-8079579D02*
X14126491Y-8117674D01*
X14126491Y-8117674D02*
X14126491Y-8165293D01*
X14126491Y-8165293D02*
X14116967Y-8203388D01*
X14116967Y-8203388D02*
X14107444Y-8222436D01*
X14107444Y-8222436D02*
X14097920Y-8231960D01*
X14097920Y-8231960D02*
X14078872Y-8241484D01*
X14078872Y-8241484D02*
X14059825Y-8241484D01*
X14059825Y-8241484D02*
X14040777Y-8231960D01*
X14040777Y-8231960D02*
X14031253Y-8222436D01*
X14031253Y-8222436D02*
X14021729Y-8203388D01*
X14021729Y-8203388D02*
X14012206Y-8165293D01*
X14012206Y-8165293D02*
X14012206Y-8117674D01*
X14012206Y-8117674D02*
X14021729Y-8079579D01*
X14021729Y-8079579D02*
X14031253Y-8060531D01*
X14031253Y-8060531D02*
X14040777Y-8051008D01*
X14040777Y-8051008D02*
X14059825Y-8041484D01*
X14193158Y-8041484D02*
X14326491Y-8041484D01*
X14326491Y-8041484D02*
X14240777Y-8241484D01*
X14412206Y-8241484D02*
X14450301Y-8241484D01*
X14450301Y-8241484D02*
X14469348Y-8231960D01*
X14469348Y-8231960D02*
X14478872Y-8222436D01*
X14478872Y-8222436D02*
X14497920Y-8193865D01*
X14497920Y-8193865D02*
X14507444Y-8155769D01*
X14507444Y-8155769D02*
X14507444Y-8079579D01*
X14507444Y-8079579D02*
X14497920Y-8060531D01*
X14497920Y-8060531D02*
X14488396Y-8051008D01*
X14488396Y-8051008D02*
X14469348Y-8041484D01*
X14469348Y-8041484D02*
X14431253Y-8041484D01*
X14431253Y-8041484D02*
X14412206Y-8051008D01*
X14412206Y-8051008D02*
X14402682Y-8060531D01*
X14402682Y-8060531D02*
X14393158Y-8079579D01*
X14393158Y-8079579D02*
X14393158Y-8127198D01*
X14393158Y-8127198D02*
X14402682Y-8146246D01*
X14402682Y-8146246D02*
X14412206Y-8155769D01*
X14412206Y-8155769D02*
X14431253Y-8165293D01*
X14431253Y-8165293D02*
X14469348Y-8165293D01*
X14469348Y-8165293D02*
X14488396Y-8155769D01*
X14488396Y-8155769D02*
X14497920Y-8146246D01*
X14497920Y-8146246D02*
X14507444Y-8127198D01*
X14583634Y-8041484D02*
X14583634Y-8079579D01*
X14659825Y-8041484D02*
X14659825Y-8079579D01*
X14955063Y-8317674D02*
X14945539Y-8308150D01*
X14945539Y-8308150D02*
X14926491Y-8279579D01*
X14926491Y-8279579D02*
X14916968Y-8260531D01*
X14916968Y-8260531D02*
X14907444Y-8231960D01*
X14907444Y-8231960D02*
X14897920Y-8184341D01*
X14897920Y-8184341D02*
X14897920Y-8146246D01*
X14897920Y-8146246D02*
X14907444Y-8098627D01*
X14907444Y-8098627D02*
X14916968Y-8070055D01*
X14916968Y-8070055D02*
X14926491Y-8051008D01*
X14926491Y-8051008D02*
X14945539Y-8022436D01*
X14945539Y-8022436D02*
X14955063Y-8012912D01*
X15021729Y-8060531D02*
X15031253Y-8051008D01*
X15031253Y-8051008D02*
X15050301Y-8041484D01*
X15050301Y-8041484D02*
X15097920Y-8041484D01*
X15097920Y-8041484D02*
X15116968Y-8051008D01*
X15116968Y-8051008D02*
X15126491Y-8060531D01*
X15126491Y-8060531D02*
X15136015Y-8079579D01*
X15136015Y-8079579D02*
X15136015Y-8098627D01*
X15136015Y-8098627D02*
X15126491Y-8127198D01*
X15126491Y-8127198D02*
X15012206Y-8241484D01*
X15012206Y-8241484D02*
X15136015Y-8241484D01*
X15316968Y-8041484D02*
X15221729Y-8041484D01*
X15221729Y-8041484D02*
X15212206Y-8136722D01*
X15212206Y-8136722D02*
X15221729Y-8127198D01*
X15221729Y-8127198D02*
X15240777Y-8117674D01*
X15240777Y-8117674D02*
X15288396Y-8117674D01*
X15288396Y-8117674D02*
X15307444Y-8127198D01*
X15307444Y-8127198D02*
X15316968Y-8136722D01*
X15316968Y-8136722D02*
X15326491Y-8155769D01*
X15326491Y-8155769D02*
X15326491Y-8203388D01*
X15326491Y-8203388D02*
X15316968Y-8222436D01*
X15316968Y-8222436D02*
X15307444Y-8231960D01*
X15307444Y-8231960D02*
X15288396Y-8241484D01*
X15288396Y-8241484D02*
X15240777Y-8241484D01*
X15240777Y-8241484D02*
X15221729Y-8231960D01*
X15221729Y-8231960D02*
X15212206Y-8222436D01*
X15564587Y-8241484D02*
X15564587Y-8041484D01*
X15650301Y-8241484D02*
X15650301Y-8136722D01*
X15650301Y-8136722D02*
X15640777Y-8117674D01*
X15640777Y-8117674D02*
X15621730Y-8108150D01*
X15621730Y-8108150D02*
X15593158Y-8108150D01*
X15593158Y-8108150D02*
X15574110Y-8117674D01*
X15574110Y-8117674D02*
X15564587Y-8127198D01*
X15774110Y-8241484D02*
X15755063Y-8231960D01*
X15755063Y-8231960D02*
X15745539Y-8222436D01*
X15745539Y-8222436D02*
X15736015Y-8203388D01*
X15736015Y-8203388D02*
X15736015Y-8146246D01*
X15736015Y-8146246D02*
X15745539Y-8127198D01*
X15745539Y-8127198D02*
X15755063Y-8117674D01*
X15755063Y-8117674D02*
X15774110Y-8108150D01*
X15774110Y-8108150D02*
X15802682Y-8108150D01*
X15802682Y-8108150D02*
X15821730Y-8117674D01*
X15821730Y-8117674D02*
X15831253Y-8127198D01*
X15831253Y-8127198D02*
X15840777Y-8146246D01*
X15840777Y-8146246D02*
X15840777Y-8203388D01*
X15840777Y-8203388D02*
X15831253Y-8222436D01*
X15831253Y-8222436D02*
X15821730Y-8231960D01*
X15821730Y-8231960D02*
X15802682Y-8241484D01*
X15802682Y-8241484D02*
X15774110Y-8241484D01*
X15955063Y-8241484D02*
X15936015Y-8231960D01*
X15936015Y-8231960D02*
X15926491Y-8212912D01*
X15926491Y-8212912D02*
X15926491Y-8041484D01*
X16107444Y-8231960D02*
X16088396Y-8241484D01*
X16088396Y-8241484D02*
X16050301Y-8241484D01*
X16050301Y-8241484D02*
X16031253Y-8231960D01*
X16031253Y-8231960D02*
X16021730Y-8212912D01*
X16021730Y-8212912D02*
X16021730Y-8136722D01*
X16021730Y-8136722D02*
X16031253Y-8117674D01*
X16031253Y-8117674D02*
X16050301Y-8108150D01*
X16050301Y-8108150D02*
X16088396Y-8108150D01*
X16088396Y-8108150D02*
X16107444Y-8117674D01*
X16107444Y-8117674D02*
X16116968Y-8136722D01*
X16116968Y-8136722D02*
X16116968Y-8155769D01*
X16116968Y-8155769D02*
X16021730Y-8174817D01*
X16193158Y-8231960D02*
X16212206Y-8241484D01*
X16212206Y-8241484D02*
X16250301Y-8241484D01*
X16250301Y-8241484D02*
X16269349Y-8231960D01*
X16269349Y-8231960D02*
X16278872Y-8212912D01*
X16278872Y-8212912D02*
X16278872Y-8203388D01*
X16278872Y-8203388D02*
X16269349Y-8184341D01*
X16269349Y-8184341D02*
X16250301Y-8174817D01*
X16250301Y-8174817D02*
X16221730Y-8174817D01*
X16221730Y-8174817D02*
X16202682Y-8165293D01*
X16202682Y-8165293D02*
X16193158Y-8146246D01*
X16193158Y-8146246D02*
X16193158Y-8136722D01*
X16193158Y-8136722D02*
X16202682Y-8117674D01*
X16202682Y-8117674D02*
X16221730Y-8108150D01*
X16221730Y-8108150D02*
X16250301Y-8108150D01*
X16250301Y-8108150D02*
X16269349Y-8117674D01*
X16345539Y-8317674D02*
X16355063Y-8308150D01*
X16355063Y-8308150D02*
X16374111Y-8279579D01*
X16374111Y-8279579D02*
X16383634Y-8260531D01*
X16383634Y-8260531D02*
X16393158Y-8231960D01*
X16393158Y-8231960D02*
X16402682Y-8184341D01*
X16402682Y-8184341D02*
X16402682Y-8146246D01*
X16402682Y-8146246D02*
X16393158Y-8098627D01*
X16393158Y-8098627D02*
X16383634Y-8070055D01*
X16383634Y-8070055D02*
X16374111Y-8051008D01*
X16374111Y-8051008D02*
X16355063Y-8022436D01*
X16355063Y-8022436D02*
X16345539Y-8012912D01*
D11*
X11380000Y-8414000D02*
G75*
G02*
X11350000Y-8414000I-15000J0D01*
G01*
X11350000Y-8414000D02*
G75*
G02*
X11380000Y-8414000I15000J0D01*
G01*
D10*
X11678872Y-8305484D02*
X11697920Y-8305484D01*
X11697920Y-8305484D02*
X11716967Y-8315008D01*
X11716967Y-8315008D02*
X11726491Y-8324531D01*
X11726491Y-8324531D02*
X11736015Y-8343579D01*
X11736015Y-8343579D02*
X11745539Y-8381674D01*
X11745539Y-8381674D02*
X11745539Y-8429293D01*
X11745539Y-8429293D02*
X11736015Y-8467389D01*
X11736015Y-8467389D02*
X11726491Y-8486436D01*
X11726491Y-8486436D02*
X11716967Y-8495960D01*
X11716967Y-8495960D02*
X11697920Y-8505484D01*
X11697920Y-8505484D02*
X11678872Y-8505484D01*
X11678872Y-8505484D02*
X11659824Y-8495960D01*
X11659824Y-8495960D02*
X11650301Y-8486436D01*
X11650301Y-8486436D02*
X11640777Y-8467389D01*
X11640777Y-8467389D02*
X11631253Y-8429293D01*
X11631253Y-8429293D02*
X11631253Y-8381674D01*
X11631253Y-8381674D02*
X11640777Y-8343579D01*
X11640777Y-8343579D02*
X11650301Y-8324531D01*
X11650301Y-8324531D02*
X11659824Y-8315008D01*
X11659824Y-8315008D02*
X11678872Y-8305484D01*
X11831253Y-8486436D02*
X11840777Y-8495960D01*
X11840777Y-8495960D02*
X11831253Y-8505484D01*
X11831253Y-8505484D02*
X11821729Y-8495960D01*
X11821729Y-8495960D02*
X11831253Y-8486436D01*
X11831253Y-8486436D02*
X11831253Y-8505484D01*
X11907443Y-8305484D02*
X12031253Y-8305484D01*
X12031253Y-8305484D02*
X11964586Y-8381674D01*
X11964586Y-8381674D02*
X11993158Y-8381674D01*
X11993158Y-8381674D02*
X12012205Y-8391198D01*
X12012205Y-8391198D02*
X12021729Y-8400722D01*
X12021729Y-8400722D02*
X12031253Y-8419770D01*
X12031253Y-8419770D02*
X12031253Y-8467389D01*
X12031253Y-8467389D02*
X12021729Y-8486436D01*
X12021729Y-8486436D02*
X12012205Y-8495960D01*
X12012205Y-8495960D02*
X11993158Y-8505484D01*
X11993158Y-8505484D02*
X11936015Y-8505484D01*
X11936015Y-8505484D02*
X11916967Y-8495960D01*
X11916967Y-8495960D02*
X11907443Y-8486436D01*
X12155062Y-8305484D02*
X12174110Y-8305484D01*
X12174110Y-8305484D02*
X12193158Y-8315008D01*
X12193158Y-8315008D02*
X12202682Y-8324531D01*
X12202682Y-8324531D02*
X12212205Y-8343579D01*
X12212205Y-8343579D02*
X12221729Y-8381674D01*
X12221729Y-8381674D02*
X12221729Y-8429293D01*
X12221729Y-8429293D02*
X12212205Y-8467389D01*
X12212205Y-8467389D02*
X12202682Y-8486436D01*
X12202682Y-8486436D02*
X12193158Y-8495960D01*
X12193158Y-8495960D02*
X12174110Y-8505484D01*
X12174110Y-8505484D02*
X12155062Y-8505484D01*
X12155062Y-8505484D02*
X12136015Y-8495960D01*
X12136015Y-8495960D02*
X12126491Y-8486436D01*
X12126491Y-8486436D02*
X12116967Y-8467389D01*
X12116967Y-8467389D02*
X12107443Y-8429293D01*
X12107443Y-8429293D02*
X12107443Y-8381674D01*
X12107443Y-8381674D02*
X12116967Y-8343579D01*
X12116967Y-8343579D02*
X12126491Y-8324531D01*
X12126491Y-8324531D02*
X12136015Y-8315008D01*
X12136015Y-8315008D02*
X12155062Y-8305484D01*
X12345539Y-8305484D02*
X12364586Y-8305484D01*
X12364586Y-8305484D02*
X12383634Y-8315008D01*
X12383634Y-8315008D02*
X12393158Y-8324531D01*
X12393158Y-8324531D02*
X12402682Y-8343579D01*
X12402682Y-8343579D02*
X12412205Y-8381674D01*
X12412205Y-8381674D02*
X12412205Y-8429293D01*
X12412205Y-8429293D02*
X12402682Y-8467389D01*
X12402682Y-8467389D02*
X12393158Y-8486436D01*
X12393158Y-8486436D02*
X12383634Y-8495960D01*
X12383634Y-8495960D02*
X12364586Y-8505484D01*
X12364586Y-8505484D02*
X12345539Y-8505484D01*
X12345539Y-8505484D02*
X12326491Y-8495960D01*
X12326491Y-8495960D02*
X12316967Y-8486436D01*
X12316967Y-8486436D02*
X12307443Y-8467389D01*
X12307443Y-8467389D02*
X12297920Y-8429293D01*
X12297920Y-8429293D02*
X12297920Y-8381674D01*
X12297920Y-8381674D02*
X12307443Y-8343579D01*
X12307443Y-8343579D02*
X12316967Y-8324531D01*
X12316967Y-8324531D02*
X12326491Y-8315008D01*
X12326491Y-8315008D02*
X12345539Y-8305484D01*
X12497920Y-8505484D02*
X12497920Y-8372150D01*
X12497920Y-8391198D02*
X12507443Y-8381674D01*
X12507443Y-8381674D02*
X12526491Y-8372150D01*
X12526491Y-8372150D02*
X12555063Y-8372150D01*
X12555063Y-8372150D02*
X12574110Y-8381674D01*
X12574110Y-8381674D02*
X12583634Y-8400722D01*
X12583634Y-8400722D02*
X12583634Y-8505484D01*
X12583634Y-8400722D02*
X12593158Y-8381674D01*
X12593158Y-8381674D02*
X12612205Y-8372150D01*
X12612205Y-8372150D02*
X12640777Y-8372150D01*
X12640777Y-8372150D02*
X12659824Y-8381674D01*
X12659824Y-8381674D02*
X12669348Y-8400722D01*
X12669348Y-8400722D02*
X12669348Y-8505484D01*
X12764586Y-8505484D02*
X12764586Y-8372150D01*
X12764586Y-8391198D02*
X12774110Y-8381674D01*
X12774110Y-8381674D02*
X12793158Y-8372150D01*
X12793158Y-8372150D02*
X12821729Y-8372150D01*
X12821729Y-8372150D02*
X12840777Y-8381674D01*
X12840777Y-8381674D02*
X12850301Y-8400722D01*
X12850301Y-8400722D02*
X12850301Y-8505484D01*
X12850301Y-8400722D02*
X12859824Y-8381674D01*
X12859824Y-8381674D02*
X12878872Y-8372150D01*
X12878872Y-8372150D02*
X12907443Y-8372150D01*
X12907443Y-8372150D02*
X12926491Y-8381674D01*
X12926491Y-8381674D02*
X12936015Y-8400722D01*
X12936015Y-8400722D02*
X12936015Y-8505484D01*
X13326491Y-8295960D02*
X13155063Y-8553103D01*
X13583634Y-8305484D02*
X13602682Y-8305484D01*
X13602682Y-8305484D02*
X13621729Y-8315008D01*
X13621729Y-8315008D02*
X13631253Y-8324531D01*
X13631253Y-8324531D02*
X13640777Y-8343579D01*
X13640777Y-8343579D02*
X13650301Y-8381674D01*
X13650301Y-8381674D02*
X13650301Y-8429293D01*
X13650301Y-8429293D02*
X13640777Y-8467389D01*
X13640777Y-8467389D02*
X13631253Y-8486436D01*
X13631253Y-8486436D02*
X13621729Y-8495960D01*
X13621729Y-8495960D02*
X13602682Y-8505484D01*
X13602682Y-8505484D02*
X13583634Y-8505484D01*
X13583634Y-8505484D02*
X13564586Y-8495960D01*
X13564586Y-8495960D02*
X13555063Y-8486436D01*
X13555063Y-8486436D02*
X13545539Y-8467389D01*
X13545539Y-8467389D02*
X13536015Y-8429293D01*
X13536015Y-8429293D02*
X13536015Y-8381674D01*
X13536015Y-8381674D02*
X13545539Y-8343579D01*
X13545539Y-8343579D02*
X13555063Y-8324531D01*
X13555063Y-8324531D02*
X13564586Y-8315008D01*
X13564586Y-8315008D02*
X13583634Y-8305484D01*
X13736015Y-8486436D02*
X13745539Y-8495960D01*
X13745539Y-8495960D02*
X13736015Y-8505484D01*
X13736015Y-8505484D02*
X13726491Y-8495960D01*
X13726491Y-8495960D02*
X13736015Y-8486436D01*
X13736015Y-8486436D02*
X13736015Y-8505484D01*
X13869348Y-8305484D02*
X13888396Y-8305484D01*
X13888396Y-8305484D02*
X13907444Y-8315008D01*
X13907444Y-8315008D02*
X13916967Y-8324531D01*
X13916967Y-8324531D02*
X13926491Y-8343579D01*
X13926491Y-8343579D02*
X13936015Y-8381674D01*
X13936015Y-8381674D02*
X13936015Y-8429293D01*
X13936015Y-8429293D02*
X13926491Y-8467389D01*
X13926491Y-8467389D02*
X13916967Y-8486436D01*
X13916967Y-8486436D02*
X13907444Y-8495960D01*
X13907444Y-8495960D02*
X13888396Y-8505484D01*
X13888396Y-8505484D02*
X13869348Y-8505484D01*
X13869348Y-8505484D02*
X13850301Y-8495960D01*
X13850301Y-8495960D02*
X13840777Y-8486436D01*
X13840777Y-8486436D02*
X13831253Y-8467389D01*
X13831253Y-8467389D02*
X13821729Y-8429293D01*
X13821729Y-8429293D02*
X13821729Y-8381674D01*
X13821729Y-8381674D02*
X13831253Y-8343579D01*
X13831253Y-8343579D02*
X13840777Y-8324531D01*
X13840777Y-8324531D02*
X13850301Y-8315008D01*
X13850301Y-8315008D02*
X13869348Y-8305484D01*
X14126491Y-8505484D02*
X14012206Y-8505484D01*
X14069348Y-8505484D02*
X14069348Y-8305484D01*
X14069348Y-8305484D02*
X14050301Y-8334055D01*
X14050301Y-8334055D02*
X14031253Y-8353103D01*
X14031253Y-8353103D02*
X14012206Y-8362627D01*
X14316967Y-8505484D02*
X14202682Y-8505484D01*
X14259825Y-8505484D02*
X14259825Y-8305484D01*
X14259825Y-8305484D02*
X14240777Y-8334055D01*
X14240777Y-8334055D02*
X14221729Y-8353103D01*
X14221729Y-8353103D02*
X14202682Y-8362627D01*
X14431253Y-8391198D02*
X14412206Y-8381674D01*
X14412206Y-8381674D02*
X14402682Y-8372150D01*
X14402682Y-8372150D02*
X14393158Y-8353103D01*
X14393158Y-8353103D02*
X14393158Y-8343579D01*
X14393158Y-8343579D02*
X14402682Y-8324531D01*
X14402682Y-8324531D02*
X14412206Y-8315008D01*
X14412206Y-8315008D02*
X14431253Y-8305484D01*
X14431253Y-8305484D02*
X14469348Y-8305484D01*
X14469348Y-8305484D02*
X14488396Y-8315008D01*
X14488396Y-8315008D02*
X14497920Y-8324531D01*
X14497920Y-8324531D02*
X14507444Y-8343579D01*
X14507444Y-8343579D02*
X14507444Y-8353103D01*
X14507444Y-8353103D02*
X14497920Y-8372150D01*
X14497920Y-8372150D02*
X14488396Y-8381674D01*
X14488396Y-8381674D02*
X14469348Y-8391198D01*
X14469348Y-8391198D02*
X14431253Y-8391198D01*
X14431253Y-8391198D02*
X14412206Y-8400722D01*
X14412206Y-8400722D02*
X14402682Y-8410246D01*
X14402682Y-8410246D02*
X14393158Y-8429293D01*
X14393158Y-8429293D02*
X14393158Y-8467389D01*
X14393158Y-8467389D02*
X14402682Y-8486436D01*
X14402682Y-8486436D02*
X14412206Y-8495960D01*
X14412206Y-8495960D02*
X14431253Y-8505484D01*
X14431253Y-8505484D02*
X14469348Y-8505484D01*
X14469348Y-8505484D02*
X14488396Y-8495960D01*
X14488396Y-8495960D02*
X14497920Y-8486436D01*
X14497920Y-8486436D02*
X14507444Y-8467389D01*
X14507444Y-8467389D02*
X14507444Y-8429293D01*
X14507444Y-8429293D02*
X14497920Y-8410246D01*
X14497920Y-8410246D02*
X14488396Y-8400722D01*
X14488396Y-8400722D02*
X14469348Y-8391198D01*
X14583634Y-8305484D02*
X14583634Y-8343579D01*
X14659825Y-8305484D02*
X14659825Y-8343579D01*
X14955063Y-8581674D02*
X14945539Y-8572150D01*
X14945539Y-8572150D02*
X14926491Y-8543579D01*
X14926491Y-8543579D02*
X14916968Y-8524531D01*
X14916968Y-8524531D02*
X14907444Y-8495960D01*
X14907444Y-8495960D02*
X14897920Y-8448341D01*
X14897920Y-8448341D02*
X14897920Y-8410246D01*
X14897920Y-8410246D02*
X14907444Y-8362627D01*
X14907444Y-8362627D02*
X14916968Y-8334055D01*
X14916968Y-8334055D02*
X14926491Y-8315008D01*
X14926491Y-8315008D02*
X14945539Y-8286436D01*
X14945539Y-8286436D02*
X14955063Y-8276912D01*
X15136015Y-8505484D02*
X15021729Y-8505484D01*
X15078872Y-8505484D02*
X15078872Y-8305484D01*
X15078872Y-8305484D02*
X15059825Y-8334055D01*
X15059825Y-8334055D02*
X15040777Y-8353103D01*
X15040777Y-8353103D02*
X15021729Y-8362627D01*
X15202682Y-8305484D02*
X15326491Y-8305484D01*
X15326491Y-8305484D02*
X15259825Y-8381674D01*
X15259825Y-8381674D02*
X15288396Y-8381674D01*
X15288396Y-8381674D02*
X15307444Y-8391198D01*
X15307444Y-8391198D02*
X15316968Y-8400722D01*
X15316968Y-8400722D02*
X15326491Y-8419770D01*
X15326491Y-8419770D02*
X15326491Y-8467389D01*
X15326491Y-8467389D02*
X15316968Y-8486436D01*
X15316968Y-8486436D02*
X15307444Y-8495960D01*
X15307444Y-8495960D02*
X15288396Y-8505484D01*
X15288396Y-8505484D02*
X15231253Y-8505484D01*
X15231253Y-8505484D02*
X15212206Y-8495960D01*
X15212206Y-8495960D02*
X15202682Y-8486436D01*
X15497920Y-8372150D02*
X15497920Y-8505484D01*
X15450301Y-8295960D02*
X15402682Y-8438817D01*
X15402682Y-8438817D02*
X15526491Y-8438817D01*
X15755063Y-8505484D02*
X15755063Y-8305484D01*
X15840777Y-8505484D02*
X15840777Y-8400722D01*
X15840777Y-8400722D02*
X15831253Y-8381674D01*
X15831253Y-8381674D02*
X15812206Y-8372150D01*
X15812206Y-8372150D02*
X15783634Y-8372150D01*
X15783634Y-8372150D02*
X15764587Y-8381674D01*
X15764587Y-8381674D02*
X15755063Y-8391198D01*
X15964587Y-8505484D02*
X15945539Y-8495960D01*
X15945539Y-8495960D02*
X15936015Y-8486436D01*
X15936015Y-8486436D02*
X15926491Y-8467389D01*
X15926491Y-8467389D02*
X15926491Y-8410246D01*
X15926491Y-8410246D02*
X15936015Y-8391198D01*
X15936015Y-8391198D02*
X15945539Y-8381674D01*
X15945539Y-8381674D02*
X15964587Y-8372150D01*
X15964587Y-8372150D02*
X15993158Y-8372150D01*
X15993158Y-8372150D02*
X16012206Y-8381674D01*
X16012206Y-8381674D02*
X16021730Y-8391198D01*
X16021730Y-8391198D02*
X16031253Y-8410246D01*
X16031253Y-8410246D02*
X16031253Y-8467389D01*
X16031253Y-8467389D02*
X16021730Y-8486436D01*
X16021730Y-8486436D02*
X16012206Y-8495960D01*
X16012206Y-8495960D02*
X15993158Y-8505484D01*
X15993158Y-8505484D02*
X15964587Y-8505484D01*
X16145539Y-8505484D02*
X16126491Y-8495960D01*
X16126491Y-8495960D02*
X16116968Y-8476912D01*
X16116968Y-8476912D02*
X16116968Y-8305484D01*
X16297920Y-8495960D02*
X16278872Y-8505484D01*
X16278872Y-8505484D02*
X16240777Y-8505484D01*
X16240777Y-8505484D02*
X16221730Y-8495960D01*
X16221730Y-8495960D02*
X16212206Y-8476912D01*
X16212206Y-8476912D02*
X16212206Y-8400722D01*
X16212206Y-8400722D02*
X16221730Y-8381674D01*
X16221730Y-8381674D02*
X16240777Y-8372150D01*
X16240777Y-8372150D02*
X16278872Y-8372150D01*
X16278872Y-8372150D02*
X16297920Y-8381674D01*
X16297920Y-8381674D02*
X16307444Y-8400722D01*
X16307444Y-8400722D02*
X16307444Y-8419770D01*
X16307444Y-8419770D02*
X16212206Y-8438817D01*
X16383634Y-8495960D02*
X16402682Y-8505484D01*
X16402682Y-8505484D02*
X16440777Y-8505484D01*
X16440777Y-8505484D02*
X16459825Y-8495960D01*
X16459825Y-8495960D02*
X16469349Y-8476912D01*
X16469349Y-8476912D02*
X16469349Y-8467389D01*
X16469349Y-8467389D02*
X16459825Y-8448341D01*
X16459825Y-8448341D02*
X16440777Y-8438817D01*
X16440777Y-8438817D02*
X16412206Y-8438817D01*
X16412206Y-8438817D02*
X16393158Y-8429293D01*
X16393158Y-8429293D02*
X16383634Y-8410246D01*
X16383634Y-8410246D02*
X16383634Y-8400722D01*
X16383634Y-8400722D02*
X16393158Y-8381674D01*
X16393158Y-8381674D02*
X16412206Y-8372150D01*
X16412206Y-8372150D02*
X16440777Y-8372150D01*
X16440777Y-8372150D02*
X16459825Y-8381674D01*
X16536015Y-8581674D02*
X16545539Y-8572150D01*
X16545539Y-8572150D02*
X16564587Y-8543579D01*
X16564587Y-8543579D02*
X16574111Y-8524531D01*
X16574111Y-8524531D02*
X16583634Y-8495960D01*
X16583634Y-8495960D02*
X16593158Y-8448341D01*
X16593158Y-8448341D02*
X16593158Y-8410246D01*
X16593158Y-8410246D02*
X16583634Y-8362627D01*
X16583634Y-8362627D02*
X16574111Y-8334055D01*
X16574111Y-8334055D02*
X16564587Y-8315008D01*
X16564587Y-8315008D02*
X16545539Y-8286436D01*
X16545539Y-8286436D02*
X16536015Y-8276912D01*
D11*
X11357000Y-8655000D02*
X11357000Y-8701000D01*
X11334000Y-8678000D02*
X11380000Y-8678000D01*
D10*
X11678872Y-8569484D02*
X11697920Y-8569484D01*
X11697920Y-8569484D02*
X11716967Y-8579008D01*
X11716967Y-8579008D02*
X11726491Y-8588531D01*
X11726491Y-8588531D02*
X11736015Y-8607579D01*
X11736015Y-8607579D02*
X11745539Y-8645674D01*
X11745539Y-8645674D02*
X11745539Y-8693293D01*
X11745539Y-8693293D02*
X11736015Y-8731389D01*
X11736015Y-8731389D02*
X11726491Y-8750436D01*
X11726491Y-8750436D02*
X11716967Y-8759960D01*
X11716967Y-8759960D02*
X11697920Y-8769484D01*
X11697920Y-8769484D02*
X11678872Y-8769484D01*
X11678872Y-8769484D02*
X11659824Y-8759960D01*
X11659824Y-8759960D02*
X11650301Y-8750436D01*
X11650301Y-8750436D02*
X11640777Y-8731389D01*
X11640777Y-8731389D02*
X11631253Y-8693293D01*
X11631253Y-8693293D02*
X11631253Y-8645674D01*
X11631253Y-8645674D02*
X11640777Y-8607579D01*
X11640777Y-8607579D02*
X11650301Y-8588531D01*
X11650301Y-8588531D02*
X11659824Y-8579008D01*
X11659824Y-8579008D02*
X11678872Y-8569484D01*
X11831253Y-8750436D02*
X11840777Y-8759960D01*
X11840777Y-8759960D02*
X11831253Y-8769484D01*
X11831253Y-8769484D02*
X11821729Y-8759960D01*
X11821729Y-8759960D02*
X11831253Y-8750436D01*
X11831253Y-8750436D02*
X11831253Y-8769484D01*
X12012205Y-8636150D02*
X12012205Y-8769484D01*
X11964586Y-8559960D02*
X11916967Y-8702817D01*
X11916967Y-8702817D02*
X12040777Y-8702817D01*
X12202682Y-8569484D02*
X12164586Y-8569484D01*
X12164586Y-8569484D02*
X12145539Y-8579008D01*
X12145539Y-8579008D02*
X12136015Y-8588531D01*
X12136015Y-8588531D02*
X12116967Y-8617103D01*
X12116967Y-8617103D02*
X12107443Y-8655198D01*
X12107443Y-8655198D02*
X12107443Y-8731389D01*
X12107443Y-8731389D02*
X12116967Y-8750436D01*
X12116967Y-8750436D02*
X12126491Y-8759960D01*
X12126491Y-8759960D02*
X12145539Y-8769484D01*
X12145539Y-8769484D02*
X12183634Y-8769484D01*
X12183634Y-8769484D02*
X12202682Y-8759960D01*
X12202682Y-8759960D02*
X12212205Y-8750436D01*
X12212205Y-8750436D02*
X12221729Y-8731389D01*
X12221729Y-8731389D02*
X12221729Y-8683770D01*
X12221729Y-8683770D02*
X12212205Y-8664722D01*
X12212205Y-8664722D02*
X12202682Y-8655198D01*
X12202682Y-8655198D02*
X12183634Y-8645674D01*
X12183634Y-8645674D02*
X12145539Y-8645674D01*
X12145539Y-8645674D02*
X12126491Y-8655198D01*
X12126491Y-8655198D02*
X12116967Y-8664722D01*
X12116967Y-8664722D02*
X12107443Y-8683770D01*
X12345539Y-8569484D02*
X12364586Y-8569484D01*
X12364586Y-8569484D02*
X12383634Y-8579008D01*
X12383634Y-8579008D02*
X12393158Y-8588531D01*
X12393158Y-8588531D02*
X12402682Y-8607579D01*
X12402682Y-8607579D02*
X12412205Y-8645674D01*
X12412205Y-8645674D02*
X12412205Y-8693293D01*
X12412205Y-8693293D02*
X12402682Y-8731389D01*
X12402682Y-8731389D02*
X12393158Y-8750436D01*
X12393158Y-8750436D02*
X12383634Y-8759960D01*
X12383634Y-8759960D02*
X12364586Y-8769484D01*
X12364586Y-8769484D02*
X12345539Y-8769484D01*
X12345539Y-8769484D02*
X12326491Y-8759960D01*
X12326491Y-8759960D02*
X12316967Y-8750436D01*
X12316967Y-8750436D02*
X12307443Y-8731389D01*
X12307443Y-8731389D02*
X12297920Y-8693293D01*
X12297920Y-8693293D02*
X12297920Y-8645674D01*
X12297920Y-8645674D02*
X12307443Y-8607579D01*
X12307443Y-8607579D02*
X12316967Y-8588531D01*
X12316967Y-8588531D02*
X12326491Y-8579008D01*
X12326491Y-8579008D02*
X12345539Y-8569484D01*
X12497920Y-8769484D02*
X12497920Y-8636150D01*
X12497920Y-8655198D02*
X12507443Y-8645674D01*
X12507443Y-8645674D02*
X12526491Y-8636150D01*
X12526491Y-8636150D02*
X12555063Y-8636150D01*
X12555063Y-8636150D02*
X12574110Y-8645674D01*
X12574110Y-8645674D02*
X12583634Y-8664722D01*
X12583634Y-8664722D02*
X12583634Y-8769484D01*
X12583634Y-8664722D02*
X12593158Y-8645674D01*
X12593158Y-8645674D02*
X12612205Y-8636150D01*
X12612205Y-8636150D02*
X12640777Y-8636150D01*
X12640777Y-8636150D02*
X12659824Y-8645674D01*
X12659824Y-8645674D02*
X12669348Y-8664722D01*
X12669348Y-8664722D02*
X12669348Y-8769484D01*
X12764586Y-8769484D02*
X12764586Y-8636150D01*
X12764586Y-8655198D02*
X12774110Y-8645674D01*
X12774110Y-8645674D02*
X12793158Y-8636150D01*
X12793158Y-8636150D02*
X12821729Y-8636150D01*
X12821729Y-8636150D02*
X12840777Y-8645674D01*
X12840777Y-8645674D02*
X12850301Y-8664722D01*
X12850301Y-8664722D02*
X12850301Y-8769484D01*
X12850301Y-8664722D02*
X12859824Y-8645674D01*
X12859824Y-8645674D02*
X12878872Y-8636150D01*
X12878872Y-8636150D02*
X12907443Y-8636150D01*
X12907443Y-8636150D02*
X12926491Y-8645674D01*
X12926491Y-8645674D02*
X12936015Y-8664722D01*
X12936015Y-8664722D02*
X12936015Y-8769484D01*
X13326491Y-8559960D02*
X13155063Y-8817103D01*
X13583634Y-8569484D02*
X13602682Y-8569484D01*
X13602682Y-8569484D02*
X13621729Y-8579008D01*
X13621729Y-8579008D02*
X13631253Y-8588531D01*
X13631253Y-8588531D02*
X13640777Y-8607579D01*
X13640777Y-8607579D02*
X13650301Y-8645674D01*
X13650301Y-8645674D02*
X13650301Y-8693293D01*
X13650301Y-8693293D02*
X13640777Y-8731389D01*
X13640777Y-8731389D02*
X13631253Y-8750436D01*
X13631253Y-8750436D02*
X13621729Y-8759960D01*
X13621729Y-8759960D02*
X13602682Y-8769484D01*
X13602682Y-8769484D02*
X13583634Y-8769484D01*
X13583634Y-8769484D02*
X13564586Y-8759960D01*
X13564586Y-8759960D02*
X13555063Y-8750436D01*
X13555063Y-8750436D02*
X13545539Y-8731389D01*
X13545539Y-8731389D02*
X13536015Y-8693293D01*
X13536015Y-8693293D02*
X13536015Y-8645674D01*
X13536015Y-8645674D02*
X13545539Y-8607579D01*
X13545539Y-8607579D02*
X13555063Y-8588531D01*
X13555063Y-8588531D02*
X13564586Y-8579008D01*
X13564586Y-8579008D02*
X13583634Y-8569484D01*
X13736015Y-8750436D02*
X13745539Y-8759960D01*
X13745539Y-8759960D02*
X13736015Y-8769484D01*
X13736015Y-8769484D02*
X13726491Y-8759960D01*
X13726491Y-8759960D02*
X13736015Y-8750436D01*
X13736015Y-8750436D02*
X13736015Y-8769484D01*
X13869348Y-8569484D02*
X13888396Y-8569484D01*
X13888396Y-8569484D02*
X13907444Y-8579008D01*
X13907444Y-8579008D02*
X13916967Y-8588531D01*
X13916967Y-8588531D02*
X13926491Y-8607579D01*
X13926491Y-8607579D02*
X13936015Y-8645674D01*
X13936015Y-8645674D02*
X13936015Y-8693293D01*
X13936015Y-8693293D02*
X13926491Y-8731389D01*
X13926491Y-8731389D02*
X13916967Y-8750436D01*
X13916967Y-8750436D02*
X13907444Y-8759960D01*
X13907444Y-8759960D02*
X13888396Y-8769484D01*
X13888396Y-8769484D02*
X13869348Y-8769484D01*
X13869348Y-8769484D02*
X13850301Y-8759960D01*
X13850301Y-8759960D02*
X13840777Y-8750436D01*
X13840777Y-8750436D02*
X13831253Y-8731389D01*
X13831253Y-8731389D02*
X13821729Y-8693293D01*
X13821729Y-8693293D02*
X13821729Y-8645674D01*
X13821729Y-8645674D02*
X13831253Y-8607579D01*
X13831253Y-8607579D02*
X13840777Y-8588531D01*
X13840777Y-8588531D02*
X13850301Y-8579008D01*
X13850301Y-8579008D02*
X13869348Y-8569484D01*
X14126491Y-8769484D02*
X14012206Y-8769484D01*
X14069348Y-8769484D02*
X14069348Y-8569484D01*
X14069348Y-8569484D02*
X14050301Y-8598055D01*
X14050301Y-8598055D02*
X14031253Y-8617103D01*
X14031253Y-8617103D02*
X14012206Y-8626627D01*
X14240777Y-8655198D02*
X14221729Y-8645674D01*
X14221729Y-8645674D02*
X14212206Y-8636150D01*
X14212206Y-8636150D02*
X14202682Y-8617103D01*
X14202682Y-8617103D02*
X14202682Y-8607579D01*
X14202682Y-8607579D02*
X14212206Y-8588531D01*
X14212206Y-8588531D02*
X14221729Y-8579008D01*
X14221729Y-8579008D02*
X14240777Y-8569484D01*
X14240777Y-8569484D02*
X14278872Y-8569484D01*
X14278872Y-8569484D02*
X14297920Y-8579008D01*
X14297920Y-8579008D02*
X14307444Y-8588531D01*
X14307444Y-8588531D02*
X14316967Y-8607579D01*
X14316967Y-8607579D02*
X14316967Y-8617103D01*
X14316967Y-8617103D02*
X14307444Y-8636150D01*
X14307444Y-8636150D02*
X14297920Y-8645674D01*
X14297920Y-8645674D02*
X14278872Y-8655198D01*
X14278872Y-8655198D02*
X14240777Y-8655198D01*
X14240777Y-8655198D02*
X14221729Y-8664722D01*
X14221729Y-8664722D02*
X14212206Y-8674246D01*
X14212206Y-8674246D02*
X14202682Y-8693293D01*
X14202682Y-8693293D02*
X14202682Y-8731389D01*
X14202682Y-8731389D02*
X14212206Y-8750436D01*
X14212206Y-8750436D02*
X14221729Y-8759960D01*
X14221729Y-8759960D02*
X14240777Y-8769484D01*
X14240777Y-8769484D02*
X14278872Y-8769484D01*
X14278872Y-8769484D02*
X14297920Y-8759960D01*
X14297920Y-8759960D02*
X14307444Y-8750436D01*
X14307444Y-8750436D02*
X14316967Y-8731389D01*
X14316967Y-8731389D02*
X14316967Y-8693293D01*
X14316967Y-8693293D02*
X14307444Y-8674246D01*
X14307444Y-8674246D02*
X14297920Y-8664722D01*
X14297920Y-8664722D02*
X14278872Y-8655198D01*
X14507444Y-8769484D02*
X14393158Y-8769484D01*
X14450301Y-8769484D02*
X14450301Y-8569484D01*
X14450301Y-8569484D02*
X14431253Y-8598055D01*
X14431253Y-8598055D02*
X14412206Y-8617103D01*
X14412206Y-8617103D02*
X14393158Y-8626627D01*
X14583634Y-8569484D02*
X14583634Y-8607579D01*
X14659825Y-8569484D02*
X14659825Y-8607579D01*
X14955063Y-8845674D02*
X14945539Y-8836150D01*
X14945539Y-8836150D02*
X14926491Y-8807579D01*
X14926491Y-8807579D02*
X14916968Y-8788531D01*
X14916968Y-8788531D02*
X14907444Y-8759960D01*
X14907444Y-8759960D02*
X14897920Y-8712341D01*
X14897920Y-8712341D02*
X14897920Y-8674246D01*
X14897920Y-8674246D02*
X14907444Y-8626627D01*
X14907444Y-8626627D02*
X14916968Y-8598055D01*
X14916968Y-8598055D02*
X14926491Y-8579008D01*
X14926491Y-8579008D02*
X14945539Y-8550436D01*
X14945539Y-8550436D02*
X14955063Y-8540912D01*
X15021729Y-8588531D02*
X15031253Y-8579008D01*
X15031253Y-8579008D02*
X15050301Y-8569484D01*
X15050301Y-8569484D02*
X15097920Y-8569484D01*
X15097920Y-8569484D02*
X15116968Y-8579008D01*
X15116968Y-8579008D02*
X15126491Y-8588531D01*
X15126491Y-8588531D02*
X15136015Y-8607579D01*
X15136015Y-8607579D02*
X15136015Y-8626627D01*
X15136015Y-8626627D02*
X15126491Y-8655198D01*
X15126491Y-8655198D02*
X15012206Y-8769484D01*
X15012206Y-8769484D02*
X15136015Y-8769484D01*
X15374110Y-8769484D02*
X15374110Y-8569484D01*
X15459825Y-8769484D02*
X15459825Y-8664722D01*
X15459825Y-8664722D02*
X15450301Y-8645674D01*
X15450301Y-8645674D02*
X15431253Y-8636150D01*
X15431253Y-8636150D02*
X15402682Y-8636150D01*
X15402682Y-8636150D02*
X15383634Y-8645674D01*
X15383634Y-8645674D02*
X15374110Y-8655198D01*
X15583634Y-8769484D02*
X15564587Y-8759960D01*
X15564587Y-8759960D02*
X15555063Y-8750436D01*
X15555063Y-8750436D02*
X15545539Y-8731389D01*
X15545539Y-8731389D02*
X15545539Y-8674246D01*
X15545539Y-8674246D02*
X15555063Y-8655198D01*
X15555063Y-8655198D02*
X15564587Y-8645674D01*
X15564587Y-8645674D02*
X15583634Y-8636150D01*
X15583634Y-8636150D02*
X15612206Y-8636150D01*
X15612206Y-8636150D02*
X15631253Y-8645674D01*
X15631253Y-8645674D02*
X15640777Y-8655198D01*
X15640777Y-8655198D02*
X15650301Y-8674246D01*
X15650301Y-8674246D02*
X15650301Y-8731389D01*
X15650301Y-8731389D02*
X15640777Y-8750436D01*
X15640777Y-8750436D02*
X15631253Y-8759960D01*
X15631253Y-8759960D02*
X15612206Y-8769484D01*
X15612206Y-8769484D02*
X15583634Y-8769484D01*
X15764587Y-8769484D02*
X15745539Y-8759960D01*
X15745539Y-8759960D02*
X15736015Y-8740912D01*
X15736015Y-8740912D02*
X15736015Y-8569484D01*
X15916968Y-8759960D02*
X15897920Y-8769484D01*
X15897920Y-8769484D02*
X15859825Y-8769484D01*
X15859825Y-8769484D02*
X15840777Y-8759960D01*
X15840777Y-8759960D02*
X15831253Y-8740912D01*
X15831253Y-8740912D02*
X15831253Y-8664722D01*
X15831253Y-8664722D02*
X15840777Y-8645674D01*
X15840777Y-8645674D02*
X15859825Y-8636150D01*
X15859825Y-8636150D02*
X15897920Y-8636150D01*
X15897920Y-8636150D02*
X15916968Y-8645674D01*
X15916968Y-8645674D02*
X15926491Y-8664722D01*
X15926491Y-8664722D02*
X15926491Y-8683770D01*
X15926491Y-8683770D02*
X15831253Y-8702817D01*
X16002682Y-8759960D02*
X16021730Y-8769484D01*
X16021730Y-8769484D02*
X16059825Y-8769484D01*
X16059825Y-8769484D02*
X16078872Y-8759960D01*
X16078872Y-8759960D02*
X16088396Y-8740912D01*
X16088396Y-8740912D02*
X16088396Y-8731389D01*
X16088396Y-8731389D02*
X16078872Y-8712341D01*
X16078872Y-8712341D02*
X16059825Y-8702817D01*
X16059825Y-8702817D02*
X16031253Y-8702817D01*
X16031253Y-8702817D02*
X16012206Y-8693293D01*
X16012206Y-8693293D02*
X16002682Y-8674246D01*
X16002682Y-8674246D02*
X16002682Y-8664722D01*
X16002682Y-8664722D02*
X16012206Y-8645674D01*
X16012206Y-8645674D02*
X16031253Y-8636150D01*
X16031253Y-8636150D02*
X16059825Y-8636150D01*
X16059825Y-8636150D02*
X16078872Y-8645674D01*
X16155063Y-8845674D02*
X16164587Y-8836150D01*
X16164587Y-8836150D02*
X16183634Y-8807579D01*
X16183634Y-8807579D02*
X16193158Y-8788531D01*
X16193158Y-8788531D02*
X16202682Y-8759960D01*
X16202682Y-8759960D02*
X16212206Y-8712341D01*
X16212206Y-8712341D02*
X16212206Y-8674246D01*
X16212206Y-8674246D02*
X16202682Y-8626627D01*
X16202682Y-8626627D02*
X16193158Y-8598055D01*
X16193158Y-8598055D02*
X16183634Y-8579008D01*
X16183634Y-8579008D02*
X16164587Y-8550436D01*
X16164587Y-8550436D02*
X16155063Y-8540912D01*
D11*
X11371213Y-8963213D02*
X11371213Y-8920787D01*
X11328787Y-8920787D01*
X11328787Y-8963213D01*
X11371213Y-8963213D01*
D10*
X11678872Y-8833484D02*
X11697920Y-8833484D01*
X11697920Y-8833484D02*
X11716967Y-8843008D01*
X11716967Y-8843008D02*
X11726491Y-8852531D01*
X11726491Y-8852531D02*
X11736015Y-8871579D01*
X11736015Y-8871579D02*
X11745539Y-8909674D01*
X11745539Y-8909674D02*
X11745539Y-8957293D01*
X11745539Y-8957293D02*
X11736015Y-8995389D01*
X11736015Y-8995389D02*
X11726491Y-9014436D01*
X11726491Y-9014436D02*
X11716967Y-9023960D01*
X11716967Y-9023960D02*
X11697920Y-9033484D01*
X11697920Y-9033484D02*
X11678872Y-9033484D01*
X11678872Y-9033484D02*
X11659824Y-9023960D01*
X11659824Y-9023960D02*
X11650301Y-9014436D01*
X11650301Y-9014436D02*
X11640777Y-8995389D01*
X11640777Y-8995389D02*
X11631253Y-8957293D01*
X11631253Y-8957293D02*
X11631253Y-8909674D01*
X11631253Y-8909674D02*
X11640777Y-8871579D01*
X11640777Y-8871579D02*
X11650301Y-8852531D01*
X11650301Y-8852531D02*
X11659824Y-8843008D01*
X11659824Y-8843008D02*
X11678872Y-8833484D01*
X11831253Y-9014436D02*
X11840777Y-9023960D01*
X11840777Y-9023960D02*
X11831253Y-9033484D01*
X11831253Y-9033484D02*
X11821729Y-9023960D01*
X11821729Y-9023960D02*
X11831253Y-9014436D01*
X11831253Y-9014436D02*
X11831253Y-9033484D01*
X12012205Y-8833484D02*
X11974110Y-8833484D01*
X11974110Y-8833484D02*
X11955062Y-8843008D01*
X11955062Y-8843008D02*
X11945539Y-8852531D01*
X11945539Y-8852531D02*
X11926491Y-8881103D01*
X11926491Y-8881103D02*
X11916967Y-8919198D01*
X11916967Y-8919198D02*
X11916967Y-8995389D01*
X11916967Y-8995389D02*
X11926491Y-9014436D01*
X11926491Y-9014436D02*
X11936015Y-9023960D01*
X11936015Y-9023960D02*
X11955062Y-9033484D01*
X11955062Y-9033484D02*
X11993158Y-9033484D01*
X11993158Y-9033484D02*
X12012205Y-9023960D01*
X12012205Y-9023960D02*
X12021729Y-9014436D01*
X12021729Y-9014436D02*
X12031253Y-8995389D01*
X12031253Y-8995389D02*
X12031253Y-8947770D01*
X12031253Y-8947770D02*
X12021729Y-8928722D01*
X12021729Y-8928722D02*
X12012205Y-8919198D01*
X12012205Y-8919198D02*
X11993158Y-8909674D01*
X11993158Y-8909674D02*
X11955062Y-8909674D01*
X11955062Y-8909674D02*
X11936015Y-8919198D01*
X11936015Y-8919198D02*
X11926491Y-8928722D01*
X11926491Y-8928722D02*
X11916967Y-8947770D01*
X12155062Y-8833484D02*
X12174110Y-8833484D01*
X12174110Y-8833484D02*
X12193158Y-8843008D01*
X12193158Y-8843008D02*
X12202682Y-8852531D01*
X12202682Y-8852531D02*
X12212205Y-8871579D01*
X12212205Y-8871579D02*
X12221729Y-8909674D01*
X12221729Y-8909674D02*
X12221729Y-8957293D01*
X12221729Y-8957293D02*
X12212205Y-8995389D01*
X12212205Y-8995389D02*
X12202682Y-9014436D01*
X12202682Y-9014436D02*
X12193158Y-9023960D01*
X12193158Y-9023960D02*
X12174110Y-9033484D01*
X12174110Y-9033484D02*
X12155062Y-9033484D01*
X12155062Y-9033484D02*
X12136015Y-9023960D01*
X12136015Y-9023960D02*
X12126491Y-9014436D01*
X12126491Y-9014436D02*
X12116967Y-8995389D01*
X12116967Y-8995389D02*
X12107443Y-8957293D01*
X12107443Y-8957293D02*
X12107443Y-8909674D01*
X12107443Y-8909674D02*
X12116967Y-8871579D01*
X12116967Y-8871579D02*
X12126491Y-8852531D01*
X12126491Y-8852531D02*
X12136015Y-8843008D01*
X12136015Y-8843008D02*
X12155062Y-8833484D01*
X12345539Y-8833484D02*
X12364586Y-8833484D01*
X12364586Y-8833484D02*
X12383634Y-8843008D01*
X12383634Y-8843008D02*
X12393158Y-8852531D01*
X12393158Y-8852531D02*
X12402682Y-8871579D01*
X12402682Y-8871579D02*
X12412205Y-8909674D01*
X12412205Y-8909674D02*
X12412205Y-8957293D01*
X12412205Y-8957293D02*
X12402682Y-8995389D01*
X12402682Y-8995389D02*
X12393158Y-9014436D01*
X12393158Y-9014436D02*
X12383634Y-9023960D01*
X12383634Y-9023960D02*
X12364586Y-9033484D01*
X12364586Y-9033484D02*
X12345539Y-9033484D01*
X12345539Y-9033484D02*
X12326491Y-9023960D01*
X12326491Y-9023960D02*
X12316967Y-9014436D01*
X12316967Y-9014436D02*
X12307443Y-8995389D01*
X12307443Y-8995389D02*
X12297920Y-8957293D01*
X12297920Y-8957293D02*
X12297920Y-8909674D01*
X12297920Y-8909674D02*
X12307443Y-8871579D01*
X12307443Y-8871579D02*
X12316967Y-8852531D01*
X12316967Y-8852531D02*
X12326491Y-8843008D01*
X12326491Y-8843008D02*
X12345539Y-8833484D01*
X12497920Y-9033484D02*
X12497920Y-8900150D01*
X12497920Y-8919198D02*
X12507443Y-8909674D01*
X12507443Y-8909674D02*
X12526491Y-8900150D01*
X12526491Y-8900150D02*
X12555063Y-8900150D01*
X12555063Y-8900150D02*
X12574110Y-8909674D01*
X12574110Y-8909674D02*
X12583634Y-8928722D01*
X12583634Y-8928722D02*
X12583634Y-9033484D01*
X12583634Y-8928722D02*
X12593158Y-8909674D01*
X12593158Y-8909674D02*
X12612205Y-8900150D01*
X12612205Y-8900150D02*
X12640777Y-8900150D01*
X12640777Y-8900150D02*
X12659824Y-8909674D01*
X12659824Y-8909674D02*
X12669348Y-8928722D01*
X12669348Y-8928722D02*
X12669348Y-9033484D01*
X12764586Y-9033484D02*
X12764586Y-8900150D01*
X12764586Y-8919198D02*
X12774110Y-8909674D01*
X12774110Y-8909674D02*
X12793158Y-8900150D01*
X12793158Y-8900150D02*
X12821729Y-8900150D01*
X12821729Y-8900150D02*
X12840777Y-8909674D01*
X12840777Y-8909674D02*
X12850301Y-8928722D01*
X12850301Y-8928722D02*
X12850301Y-9033484D01*
X12850301Y-8928722D02*
X12859824Y-8909674D01*
X12859824Y-8909674D02*
X12878872Y-8900150D01*
X12878872Y-8900150D02*
X12907443Y-8900150D01*
X12907443Y-8900150D02*
X12926491Y-8909674D01*
X12926491Y-8909674D02*
X12936015Y-8928722D01*
X12936015Y-8928722D02*
X12936015Y-9033484D01*
X13326491Y-8823960D02*
X13155063Y-9081103D01*
X13583634Y-8833484D02*
X13602682Y-8833484D01*
X13602682Y-8833484D02*
X13621729Y-8843008D01*
X13621729Y-8843008D02*
X13631253Y-8852531D01*
X13631253Y-8852531D02*
X13640777Y-8871579D01*
X13640777Y-8871579D02*
X13650301Y-8909674D01*
X13650301Y-8909674D02*
X13650301Y-8957293D01*
X13650301Y-8957293D02*
X13640777Y-8995389D01*
X13640777Y-8995389D02*
X13631253Y-9014436D01*
X13631253Y-9014436D02*
X13621729Y-9023960D01*
X13621729Y-9023960D02*
X13602682Y-9033484D01*
X13602682Y-9033484D02*
X13583634Y-9033484D01*
X13583634Y-9033484D02*
X13564586Y-9023960D01*
X13564586Y-9023960D02*
X13555063Y-9014436D01*
X13555063Y-9014436D02*
X13545539Y-8995389D01*
X13545539Y-8995389D02*
X13536015Y-8957293D01*
X13536015Y-8957293D02*
X13536015Y-8909674D01*
X13536015Y-8909674D02*
X13545539Y-8871579D01*
X13545539Y-8871579D02*
X13555063Y-8852531D01*
X13555063Y-8852531D02*
X13564586Y-8843008D01*
X13564586Y-8843008D02*
X13583634Y-8833484D01*
X13736015Y-9014436D02*
X13745539Y-9023960D01*
X13745539Y-9023960D02*
X13736015Y-9033484D01*
X13736015Y-9033484D02*
X13726491Y-9023960D01*
X13726491Y-9023960D02*
X13736015Y-9014436D01*
X13736015Y-9014436D02*
X13736015Y-9033484D01*
X13869348Y-8833484D02*
X13888396Y-8833484D01*
X13888396Y-8833484D02*
X13907444Y-8843008D01*
X13907444Y-8843008D02*
X13916967Y-8852531D01*
X13916967Y-8852531D02*
X13926491Y-8871579D01*
X13926491Y-8871579D02*
X13936015Y-8909674D01*
X13936015Y-8909674D02*
X13936015Y-8957293D01*
X13936015Y-8957293D02*
X13926491Y-8995389D01*
X13926491Y-8995389D02*
X13916967Y-9014436D01*
X13916967Y-9014436D02*
X13907444Y-9023960D01*
X13907444Y-9023960D02*
X13888396Y-9033484D01*
X13888396Y-9033484D02*
X13869348Y-9033484D01*
X13869348Y-9033484D02*
X13850301Y-9023960D01*
X13850301Y-9023960D02*
X13840777Y-9014436D01*
X13840777Y-9014436D02*
X13831253Y-8995389D01*
X13831253Y-8995389D02*
X13821729Y-8957293D01*
X13821729Y-8957293D02*
X13821729Y-8909674D01*
X13821729Y-8909674D02*
X13831253Y-8871579D01*
X13831253Y-8871579D02*
X13840777Y-8852531D01*
X13840777Y-8852531D02*
X13850301Y-8843008D01*
X13850301Y-8843008D02*
X13869348Y-8833484D01*
X14012206Y-8852531D02*
X14021729Y-8843008D01*
X14021729Y-8843008D02*
X14040777Y-8833484D01*
X14040777Y-8833484D02*
X14088396Y-8833484D01*
X14088396Y-8833484D02*
X14107444Y-8843008D01*
X14107444Y-8843008D02*
X14116967Y-8852531D01*
X14116967Y-8852531D02*
X14126491Y-8871579D01*
X14126491Y-8871579D02*
X14126491Y-8890627D01*
X14126491Y-8890627D02*
X14116967Y-8919198D01*
X14116967Y-8919198D02*
X14002682Y-9033484D01*
X14002682Y-9033484D02*
X14126491Y-9033484D01*
X14193158Y-8833484D02*
X14316967Y-8833484D01*
X14316967Y-8833484D02*
X14250301Y-8909674D01*
X14250301Y-8909674D02*
X14278872Y-8909674D01*
X14278872Y-8909674D02*
X14297920Y-8919198D01*
X14297920Y-8919198D02*
X14307444Y-8928722D01*
X14307444Y-8928722D02*
X14316967Y-8947770D01*
X14316967Y-8947770D02*
X14316967Y-8995389D01*
X14316967Y-8995389D02*
X14307444Y-9014436D01*
X14307444Y-9014436D02*
X14297920Y-9023960D01*
X14297920Y-9023960D02*
X14278872Y-9033484D01*
X14278872Y-9033484D02*
X14221729Y-9033484D01*
X14221729Y-9033484D02*
X14202682Y-9023960D01*
X14202682Y-9023960D02*
X14193158Y-9014436D01*
X14488396Y-8833484D02*
X14450301Y-8833484D01*
X14450301Y-8833484D02*
X14431253Y-8843008D01*
X14431253Y-8843008D02*
X14421729Y-8852531D01*
X14421729Y-8852531D02*
X14402682Y-8881103D01*
X14402682Y-8881103D02*
X14393158Y-8919198D01*
X14393158Y-8919198D02*
X14393158Y-8995389D01*
X14393158Y-8995389D02*
X14402682Y-9014436D01*
X14402682Y-9014436D02*
X14412206Y-9023960D01*
X14412206Y-9023960D02*
X14431253Y-9033484D01*
X14431253Y-9033484D02*
X14469348Y-9033484D01*
X14469348Y-9033484D02*
X14488396Y-9023960D01*
X14488396Y-9023960D02*
X14497920Y-9014436D01*
X14497920Y-9014436D02*
X14507444Y-8995389D01*
X14507444Y-8995389D02*
X14507444Y-8947770D01*
X14507444Y-8947770D02*
X14497920Y-8928722D01*
X14497920Y-8928722D02*
X14488396Y-8919198D01*
X14488396Y-8919198D02*
X14469348Y-8909674D01*
X14469348Y-8909674D02*
X14431253Y-8909674D01*
X14431253Y-8909674D02*
X14412206Y-8919198D01*
X14412206Y-8919198D02*
X14402682Y-8928722D01*
X14402682Y-8928722D02*
X14393158Y-8947770D01*
X14583634Y-8833484D02*
X14583634Y-8871579D01*
X14659825Y-8833484D02*
X14659825Y-8871579D01*
X14955063Y-9109674D02*
X14945539Y-9100150D01*
X14945539Y-9100150D02*
X14926491Y-9071579D01*
X14926491Y-9071579D02*
X14916968Y-9052531D01*
X14916968Y-9052531D02*
X14907444Y-9023960D01*
X14907444Y-9023960D02*
X14897920Y-8976341D01*
X14897920Y-8976341D02*
X14897920Y-8938246D01*
X14897920Y-8938246D02*
X14907444Y-8890627D01*
X14907444Y-8890627D02*
X14916968Y-8862055D01*
X14916968Y-8862055D02*
X14926491Y-8843008D01*
X14926491Y-8843008D02*
X14945539Y-8814436D01*
X14945539Y-8814436D02*
X14955063Y-8804912D01*
X15069348Y-8833484D02*
X15088396Y-8833484D01*
X15088396Y-8833484D02*
X15107444Y-8843008D01*
X15107444Y-8843008D02*
X15116968Y-8852531D01*
X15116968Y-8852531D02*
X15126491Y-8871579D01*
X15126491Y-8871579D02*
X15136015Y-8909674D01*
X15136015Y-8909674D02*
X15136015Y-8957293D01*
X15136015Y-8957293D02*
X15126491Y-8995389D01*
X15126491Y-8995389D02*
X15116968Y-9014436D01*
X15116968Y-9014436D02*
X15107444Y-9023960D01*
X15107444Y-9023960D02*
X15088396Y-9033484D01*
X15088396Y-9033484D02*
X15069348Y-9033484D01*
X15069348Y-9033484D02*
X15050301Y-9023960D01*
X15050301Y-9023960D02*
X15040777Y-9014436D01*
X15040777Y-9014436D02*
X15031253Y-8995389D01*
X15031253Y-8995389D02*
X15021729Y-8957293D01*
X15021729Y-8957293D02*
X15021729Y-8909674D01*
X15021729Y-8909674D02*
X15031253Y-8871579D01*
X15031253Y-8871579D02*
X15040777Y-8852531D01*
X15040777Y-8852531D02*
X15050301Y-8843008D01*
X15050301Y-8843008D02*
X15069348Y-8833484D01*
X15374110Y-9033484D02*
X15374110Y-8833484D01*
X15459825Y-9033484D02*
X15459825Y-8928722D01*
X15459825Y-8928722D02*
X15450301Y-8909674D01*
X15450301Y-8909674D02*
X15431253Y-8900150D01*
X15431253Y-8900150D02*
X15402682Y-8900150D01*
X15402682Y-8900150D02*
X15383634Y-8909674D01*
X15383634Y-8909674D02*
X15374110Y-8919198D01*
X15583634Y-9033484D02*
X15564587Y-9023960D01*
X15564587Y-9023960D02*
X15555063Y-9014436D01*
X15555063Y-9014436D02*
X15545539Y-8995389D01*
X15545539Y-8995389D02*
X15545539Y-8938246D01*
X15545539Y-8938246D02*
X15555063Y-8919198D01*
X15555063Y-8919198D02*
X15564587Y-8909674D01*
X15564587Y-8909674D02*
X15583634Y-8900150D01*
X15583634Y-8900150D02*
X15612206Y-8900150D01*
X15612206Y-8900150D02*
X15631253Y-8909674D01*
X15631253Y-8909674D02*
X15640777Y-8919198D01*
X15640777Y-8919198D02*
X15650301Y-8938246D01*
X15650301Y-8938246D02*
X15650301Y-8995389D01*
X15650301Y-8995389D02*
X15640777Y-9014436D01*
X15640777Y-9014436D02*
X15631253Y-9023960D01*
X15631253Y-9023960D02*
X15612206Y-9033484D01*
X15612206Y-9033484D02*
X15583634Y-9033484D01*
X15764587Y-9033484D02*
X15745539Y-9023960D01*
X15745539Y-9023960D02*
X15736015Y-9004912D01*
X15736015Y-9004912D02*
X15736015Y-8833484D01*
X15916968Y-9023960D02*
X15897920Y-9033484D01*
X15897920Y-9033484D02*
X15859825Y-9033484D01*
X15859825Y-9033484D02*
X15840777Y-9023960D01*
X15840777Y-9023960D02*
X15831253Y-9004912D01*
X15831253Y-9004912D02*
X15831253Y-8928722D01*
X15831253Y-8928722D02*
X15840777Y-8909674D01*
X15840777Y-8909674D02*
X15859825Y-8900150D01*
X15859825Y-8900150D02*
X15897920Y-8900150D01*
X15897920Y-8900150D02*
X15916968Y-8909674D01*
X15916968Y-8909674D02*
X15926491Y-8928722D01*
X15926491Y-8928722D02*
X15926491Y-8947770D01*
X15926491Y-8947770D02*
X15831253Y-8966817D01*
X16002682Y-9023960D02*
X16021730Y-9033484D01*
X16021730Y-9033484D02*
X16059825Y-9033484D01*
X16059825Y-9033484D02*
X16078872Y-9023960D01*
X16078872Y-9023960D02*
X16088396Y-9004912D01*
X16088396Y-9004912D02*
X16088396Y-8995389D01*
X16088396Y-8995389D02*
X16078872Y-8976341D01*
X16078872Y-8976341D02*
X16059825Y-8966817D01*
X16059825Y-8966817D02*
X16031253Y-8966817D01*
X16031253Y-8966817D02*
X16012206Y-8957293D01*
X16012206Y-8957293D02*
X16002682Y-8938246D01*
X16002682Y-8938246D02*
X16002682Y-8928722D01*
X16002682Y-8928722D02*
X16012206Y-8909674D01*
X16012206Y-8909674D02*
X16031253Y-8900150D01*
X16031253Y-8900150D02*
X16059825Y-8900150D01*
X16059825Y-8900150D02*
X16078872Y-8909674D01*
X16326492Y-8957293D02*
X16478873Y-8957293D01*
X16402682Y-9033484D02*
X16402682Y-8881103D01*
X16812206Y-8900150D02*
X16812206Y-9033484D01*
X16764587Y-8823960D02*
X16716968Y-8966817D01*
X16716968Y-8966817D02*
X16840777Y-8966817D01*
X17059825Y-9023960D02*
X17078873Y-9033484D01*
X17078873Y-9033484D02*
X17116968Y-9033484D01*
X17116968Y-9033484D02*
X17136016Y-9023960D01*
X17136016Y-9023960D02*
X17145539Y-9004912D01*
X17145539Y-9004912D02*
X17145539Y-8995389D01*
X17145539Y-8995389D02*
X17136016Y-8976341D01*
X17136016Y-8976341D02*
X17116968Y-8966817D01*
X17116968Y-8966817D02*
X17088396Y-8966817D01*
X17088396Y-8966817D02*
X17069349Y-8957293D01*
X17069349Y-8957293D02*
X17059825Y-8938246D01*
X17059825Y-8938246D02*
X17059825Y-8928722D01*
X17059825Y-8928722D02*
X17069349Y-8909674D01*
X17069349Y-8909674D02*
X17088396Y-8900150D01*
X17088396Y-8900150D02*
X17116968Y-8900150D01*
X17116968Y-8900150D02*
X17136016Y-8909674D01*
X17259825Y-9033484D02*
X17240777Y-9023960D01*
X17240777Y-9023960D02*
X17231254Y-9004912D01*
X17231254Y-9004912D02*
X17231254Y-8833484D01*
X17364587Y-9033484D02*
X17345539Y-9023960D01*
X17345539Y-9023960D02*
X17336016Y-9014436D01*
X17336016Y-9014436D02*
X17326492Y-8995389D01*
X17326492Y-8995389D02*
X17326492Y-8938246D01*
X17326492Y-8938246D02*
X17336016Y-8919198D01*
X17336016Y-8919198D02*
X17345539Y-8909674D01*
X17345539Y-8909674D02*
X17364587Y-8900150D01*
X17364587Y-8900150D02*
X17393158Y-8900150D01*
X17393158Y-8900150D02*
X17412206Y-8909674D01*
X17412206Y-8909674D02*
X17421730Y-8919198D01*
X17421730Y-8919198D02*
X17431254Y-8938246D01*
X17431254Y-8938246D02*
X17431254Y-8995389D01*
X17431254Y-8995389D02*
X17421730Y-9014436D01*
X17421730Y-9014436D02*
X17412206Y-9023960D01*
X17412206Y-9023960D02*
X17393158Y-9033484D01*
X17393158Y-9033484D02*
X17364587Y-9033484D01*
X17488397Y-8900150D02*
X17564587Y-8900150D01*
X17516968Y-8833484D02*
X17516968Y-9004912D01*
X17516968Y-9004912D02*
X17526492Y-9023960D01*
X17526492Y-9023960D02*
X17545539Y-9033484D01*
X17545539Y-9033484D02*
X17564587Y-9033484D01*
X17621730Y-9023960D02*
X17640777Y-9033484D01*
X17640777Y-9033484D02*
X17678873Y-9033484D01*
X17678873Y-9033484D02*
X17697920Y-9023960D01*
X17697920Y-9023960D02*
X17707444Y-9004912D01*
X17707444Y-9004912D02*
X17707444Y-8995389D01*
X17707444Y-8995389D02*
X17697920Y-8976341D01*
X17697920Y-8976341D02*
X17678873Y-8966817D01*
X17678873Y-8966817D02*
X17650301Y-8966817D01*
X17650301Y-8966817D02*
X17631254Y-8957293D01*
X17631254Y-8957293D02*
X17621730Y-8938246D01*
X17621730Y-8938246D02*
X17621730Y-8928722D01*
X17621730Y-8928722D02*
X17631254Y-8909674D01*
X17631254Y-8909674D02*
X17650301Y-8900150D01*
X17650301Y-8900150D02*
X17678873Y-8900150D01*
X17678873Y-8900150D02*
X17697920Y-8909674D01*
X17774111Y-9109674D02*
X17783635Y-9100150D01*
X17783635Y-9100150D02*
X17802682Y-9071579D01*
X17802682Y-9071579D02*
X17812206Y-9052531D01*
X17812206Y-9052531D02*
X17821730Y-9023960D01*
X17821730Y-9023960D02*
X17831254Y-8976341D01*
X17831254Y-8976341D02*
X17831254Y-8938246D01*
X17831254Y-8938246D02*
X17821730Y-8890627D01*
X17821730Y-8890627D02*
X17812206Y-8862055D01*
X17812206Y-8862055D02*
X17802682Y-8843008D01*
X17802682Y-8843008D02*
X17783635Y-8814436D01*
X17783635Y-8814436D02*
X17774111Y-8804912D01*
X11280000Y-9306000D02*
X11380000Y-9206000D01*
X11280000Y-9106000D01*
X11180000Y-9206000D01*
X11280000Y-9306000D01*
X11631253Y-9116531D02*
X11640777Y-9107008D01*
X11640777Y-9107008D02*
X11659824Y-9097484D01*
X11659824Y-9097484D02*
X11707443Y-9097484D01*
X11707443Y-9097484D02*
X11726491Y-9107008D01*
X11726491Y-9107008D02*
X11736015Y-9116531D01*
X11736015Y-9116531D02*
X11745539Y-9135579D01*
X11745539Y-9135579D02*
X11745539Y-9154627D01*
X11745539Y-9154627D02*
X11736015Y-9183198D01*
X11736015Y-9183198D02*
X11621729Y-9297484D01*
X11621729Y-9297484D02*
X11745539Y-9297484D01*
X11831253Y-9278436D02*
X11840777Y-9287960D01*
X11840777Y-9287960D02*
X11831253Y-9297484D01*
X11831253Y-9297484D02*
X11821729Y-9287960D01*
X11821729Y-9287960D02*
X11831253Y-9278436D01*
X11831253Y-9278436D02*
X11831253Y-9297484D01*
X12012205Y-9097484D02*
X11974110Y-9097484D01*
X11974110Y-9097484D02*
X11955062Y-9107008D01*
X11955062Y-9107008D02*
X11945539Y-9116531D01*
X11945539Y-9116531D02*
X11926491Y-9145103D01*
X11926491Y-9145103D02*
X11916967Y-9183198D01*
X11916967Y-9183198D02*
X11916967Y-9259389D01*
X11916967Y-9259389D02*
X11926491Y-9278436D01*
X11926491Y-9278436D02*
X11936015Y-9287960D01*
X11936015Y-9287960D02*
X11955062Y-9297484D01*
X11955062Y-9297484D02*
X11993158Y-9297484D01*
X11993158Y-9297484D02*
X12012205Y-9287960D01*
X12012205Y-9287960D02*
X12021729Y-9278436D01*
X12021729Y-9278436D02*
X12031253Y-9259389D01*
X12031253Y-9259389D02*
X12031253Y-9211770D01*
X12031253Y-9211770D02*
X12021729Y-9192722D01*
X12021729Y-9192722D02*
X12012205Y-9183198D01*
X12012205Y-9183198D02*
X11993158Y-9173674D01*
X11993158Y-9173674D02*
X11955062Y-9173674D01*
X11955062Y-9173674D02*
X11936015Y-9183198D01*
X11936015Y-9183198D02*
X11926491Y-9192722D01*
X11926491Y-9192722D02*
X11916967Y-9211770D01*
X12155062Y-9097484D02*
X12174110Y-9097484D01*
X12174110Y-9097484D02*
X12193158Y-9107008D01*
X12193158Y-9107008D02*
X12202682Y-9116531D01*
X12202682Y-9116531D02*
X12212205Y-9135579D01*
X12212205Y-9135579D02*
X12221729Y-9173674D01*
X12221729Y-9173674D02*
X12221729Y-9221293D01*
X12221729Y-9221293D02*
X12212205Y-9259389D01*
X12212205Y-9259389D02*
X12202682Y-9278436D01*
X12202682Y-9278436D02*
X12193158Y-9287960D01*
X12193158Y-9287960D02*
X12174110Y-9297484D01*
X12174110Y-9297484D02*
X12155062Y-9297484D01*
X12155062Y-9297484D02*
X12136015Y-9287960D01*
X12136015Y-9287960D02*
X12126491Y-9278436D01*
X12126491Y-9278436D02*
X12116967Y-9259389D01*
X12116967Y-9259389D02*
X12107443Y-9221293D01*
X12107443Y-9221293D02*
X12107443Y-9173674D01*
X12107443Y-9173674D02*
X12116967Y-9135579D01*
X12116967Y-9135579D02*
X12126491Y-9116531D01*
X12126491Y-9116531D02*
X12136015Y-9107008D01*
X12136015Y-9107008D02*
X12155062Y-9097484D01*
X12345539Y-9097484D02*
X12364586Y-9097484D01*
X12364586Y-9097484D02*
X12383634Y-9107008D01*
X12383634Y-9107008D02*
X12393158Y-9116531D01*
X12393158Y-9116531D02*
X12402682Y-9135579D01*
X12402682Y-9135579D02*
X12412205Y-9173674D01*
X12412205Y-9173674D02*
X12412205Y-9221293D01*
X12412205Y-9221293D02*
X12402682Y-9259389D01*
X12402682Y-9259389D02*
X12393158Y-9278436D01*
X12393158Y-9278436D02*
X12383634Y-9287960D01*
X12383634Y-9287960D02*
X12364586Y-9297484D01*
X12364586Y-9297484D02*
X12345539Y-9297484D01*
X12345539Y-9297484D02*
X12326491Y-9287960D01*
X12326491Y-9287960D02*
X12316967Y-9278436D01*
X12316967Y-9278436D02*
X12307443Y-9259389D01*
X12307443Y-9259389D02*
X12297920Y-9221293D01*
X12297920Y-9221293D02*
X12297920Y-9173674D01*
X12297920Y-9173674D02*
X12307443Y-9135579D01*
X12307443Y-9135579D02*
X12316967Y-9116531D01*
X12316967Y-9116531D02*
X12326491Y-9107008D01*
X12326491Y-9107008D02*
X12345539Y-9097484D01*
X12497920Y-9297484D02*
X12497920Y-9164150D01*
X12497920Y-9183198D02*
X12507443Y-9173674D01*
X12507443Y-9173674D02*
X12526491Y-9164150D01*
X12526491Y-9164150D02*
X12555063Y-9164150D01*
X12555063Y-9164150D02*
X12574110Y-9173674D01*
X12574110Y-9173674D02*
X12583634Y-9192722D01*
X12583634Y-9192722D02*
X12583634Y-9297484D01*
X12583634Y-9192722D02*
X12593158Y-9173674D01*
X12593158Y-9173674D02*
X12612205Y-9164150D01*
X12612205Y-9164150D02*
X12640777Y-9164150D01*
X12640777Y-9164150D02*
X12659824Y-9173674D01*
X12659824Y-9173674D02*
X12669348Y-9192722D01*
X12669348Y-9192722D02*
X12669348Y-9297484D01*
X12764586Y-9297484D02*
X12764586Y-9164150D01*
X12764586Y-9183198D02*
X12774110Y-9173674D01*
X12774110Y-9173674D02*
X12793158Y-9164150D01*
X12793158Y-9164150D02*
X12821729Y-9164150D01*
X12821729Y-9164150D02*
X12840777Y-9173674D01*
X12840777Y-9173674D02*
X12850301Y-9192722D01*
X12850301Y-9192722D02*
X12850301Y-9297484D01*
X12850301Y-9192722D02*
X12859824Y-9173674D01*
X12859824Y-9173674D02*
X12878872Y-9164150D01*
X12878872Y-9164150D02*
X12907443Y-9164150D01*
X12907443Y-9164150D02*
X12926491Y-9173674D01*
X12926491Y-9173674D02*
X12936015Y-9192722D01*
X12936015Y-9192722D02*
X12936015Y-9297484D01*
X13326491Y-9087960D02*
X13155063Y-9345103D01*
X13583634Y-9097484D02*
X13602682Y-9097484D01*
X13602682Y-9097484D02*
X13621729Y-9107008D01*
X13621729Y-9107008D02*
X13631253Y-9116531D01*
X13631253Y-9116531D02*
X13640777Y-9135579D01*
X13640777Y-9135579D02*
X13650301Y-9173674D01*
X13650301Y-9173674D02*
X13650301Y-9221293D01*
X13650301Y-9221293D02*
X13640777Y-9259389D01*
X13640777Y-9259389D02*
X13631253Y-9278436D01*
X13631253Y-9278436D02*
X13621729Y-9287960D01*
X13621729Y-9287960D02*
X13602682Y-9297484D01*
X13602682Y-9297484D02*
X13583634Y-9297484D01*
X13583634Y-9297484D02*
X13564586Y-9287960D01*
X13564586Y-9287960D02*
X13555063Y-9278436D01*
X13555063Y-9278436D02*
X13545539Y-9259389D01*
X13545539Y-9259389D02*
X13536015Y-9221293D01*
X13536015Y-9221293D02*
X13536015Y-9173674D01*
X13536015Y-9173674D02*
X13545539Y-9135579D01*
X13545539Y-9135579D02*
X13555063Y-9116531D01*
X13555063Y-9116531D02*
X13564586Y-9107008D01*
X13564586Y-9107008D02*
X13583634Y-9097484D01*
X13736015Y-9278436D02*
X13745539Y-9287960D01*
X13745539Y-9287960D02*
X13736015Y-9297484D01*
X13736015Y-9297484D02*
X13726491Y-9287960D01*
X13726491Y-9287960D02*
X13736015Y-9278436D01*
X13736015Y-9278436D02*
X13736015Y-9297484D01*
X13936015Y-9297484D02*
X13821729Y-9297484D01*
X13878872Y-9297484D02*
X13878872Y-9097484D01*
X13878872Y-9097484D02*
X13859825Y-9126055D01*
X13859825Y-9126055D02*
X13840777Y-9145103D01*
X13840777Y-9145103D02*
X13821729Y-9154627D01*
X14059825Y-9097484D02*
X14078872Y-9097484D01*
X14078872Y-9097484D02*
X14097920Y-9107008D01*
X14097920Y-9107008D02*
X14107444Y-9116531D01*
X14107444Y-9116531D02*
X14116967Y-9135579D01*
X14116967Y-9135579D02*
X14126491Y-9173674D01*
X14126491Y-9173674D02*
X14126491Y-9221293D01*
X14126491Y-9221293D02*
X14116967Y-9259389D01*
X14116967Y-9259389D02*
X14107444Y-9278436D01*
X14107444Y-9278436D02*
X14097920Y-9287960D01*
X14097920Y-9287960D02*
X14078872Y-9297484D01*
X14078872Y-9297484D02*
X14059825Y-9297484D01*
X14059825Y-9297484D02*
X14040777Y-9287960D01*
X14040777Y-9287960D02*
X14031253Y-9278436D01*
X14031253Y-9278436D02*
X14021729Y-9259389D01*
X14021729Y-9259389D02*
X14012206Y-9221293D01*
X14012206Y-9221293D02*
X14012206Y-9173674D01*
X14012206Y-9173674D02*
X14021729Y-9135579D01*
X14021729Y-9135579D02*
X14031253Y-9116531D01*
X14031253Y-9116531D02*
X14040777Y-9107008D01*
X14040777Y-9107008D02*
X14059825Y-9097484D01*
X14202682Y-9116531D02*
X14212206Y-9107008D01*
X14212206Y-9107008D02*
X14231253Y-9097484D01*
X14231253Y-9097484D02*
X14278872Y-9097484D01*
X14278872Y-9097484D02*
X14297920Y-9107008D01*
X14297920Y-9107008D02*
X14307444Y-9116531D01*
X14307444Y-9116531D02*
X14316967Y-9135579D01*
X14316967Y-9135579D02*
X14316967Y-9154627D01*
X14316967Y-9154627D02*
X14307444Y-9183198D01*
X14307444Y-9183198D02*
X14193158Y-9297484D01*
X14193158Y-9297484D02*
X14316967Y-9297484D01*
X14488396Y-9164150D02*
X14488396Y-9297484D01*
X14440777Y-9087960D02*
X14393158Y-9230817D01*
X14393158Y-9230817D02*
X14516967Y-9230817D01*
X14583634Y-9097484D02*
X14583634Y-9135579D01*
X14659825Y-9097484D02*
X14659825Y-9135579D01*
X14955063Y-9373674D02*
X14945539Y-9364150D01*
X14945539Y-9364150D02*
X14926491Y-9335579D01*
X14926491Y-9335579D02*
X14916968Y-9316531D01*
X14916968Y-9316531D02*
X14907444Y-9287960D01*
X14907444Y-9287960D02*
X14897920Y-9240341D01*
X14897920Y-9240341D02*
X14897920Y-9202246D01*
X14897920Y-9202246D02*
X14907444Y-9154627D01*
X14907444Y-9154627D02*
X14916968Y-9126055D01*
X14916968Y-9126055D02*
X14926491Y-9107008D01*
X14926491Y-9107008D02*
X14945539Y-9078436D01*
X14945539Y-9078436D02*
X14955063Y-9068912D01*
X15116968Y-9164150D02*
X15116968Y-9297484D01*
X15069348Y-9087960D02*
X15021729Y-9230817D01*
X15021729Y-9230817D02*
X15145539Y-9230817D01*
X15374110Y-9297484D02*
X15374110Y-9097484D01*
X15459825Y-9297484D02*
X15459825Y-9192722D01*
X15459825Y-9192722D02*
X15450301Y-9173674D01*
X15450301Y-9173674D02*
X15431253Y-9164150D01*
X15431253Y-9164150D02*
X15402682Y-9164150D01*
X15402682Y-9164150D02*
X15383634Y-9173674D01*
X15383634Y-9173674D02*
X15374110Y-9183198D01*
X15583634Y-9297484D02*
X15564587Y-9287960D01*
X15564587Y-9287960D02*
X15555063Y-9278436D01*
X15555063Y-9278436D02*
X15545539Y-9259389D01*
X15545539Y-9259389D02*
X15545539Y-9202246D01*
X15545539Y-9202246D02*
X15555063Y-9183198D01*
X15555063Y-9183198D02*
X15564587Y-9173674D01*
X15564587Y-9173674D02*
X15583634Y-9164150D01*
X15583634Y-9164150D02*
X15612206Y-9164150D01*
X15612206Y-9164150D02*
X15631253Y-9173674D01*
X15631253Y-9173674D02*
X15640777Y-9183198D01*
X15640777Y-9183198D02*
X15650301Y-9202246D01*
X15650301Y-9202246D02*
X15650301Y-9259389D01*
X15650301Y-9259389D02*
X15640777Y-9278436D01*
X15640777Y-9278436D02*
X15631253Y-9287960D01*
X15631253Y-9287960D02*
X15612206Y-9297484D01*
X15612206Y-9297484D02*
X15583634Y-9297484D01*
X15764587Y-9297484D02*
X15745539Y-9287960D01*
X15745539Y-9287960D02*
X15736015Y-9268912D01*
X15736015Y-9268912D02*
X15736015Y-9097484D01*
X15916968Y-9287960D02*
X15897920Y-9297484D01*
X15897920Y-9297484D02*
X15859825Y-9297484D01*
X15859825Y-9297484D02*
X15840777Y-9287960D01*
X15840777Y-9287960D02*
X15831253Y-9268912D01*
X15831253Y-9268912D02*
X15831253Y-9192722D01*
X15831253Y-9192722D02*
X15840777Y-9173674D01*
X15840777Y-9173674D02*
X15859825Y-9164150D01*
X15859825Y-9164150D02*
X15897920Y-9164150D01*
X15897920Y-9164150D02*
X15916968Y-9173674D01*
X15916968Y-9173674D02*
X15926491Y-9192722D01*
X15926491Y-9192722D02*
X15926491Y-9211770D01*
X15926491Y-9211770D02*
X15831253Y-9230817D01*
X16002682Y-9287960D02*
X16021730Y-9297484D01*
X16021730Y-9297484D02*
X16059825Y-9297484D01*
X16059825Y-9297484D02*
X16078872Y-9287960D01*
X16078872Y-9287960D02*
X16088396Y-9268912D01*
X16088396Y-9268912D02*
X16088396Y-9259389D01*
X16088396Y-9259389D02*
X16078872Y-9240341D01*
X16078872Y-9240341D02*
X16059825Y-9230817D01*
X16059825Y-9230817D02*
X16031253Y-9230817D01*
X16031253Y-9230817D02*
X16012206Y-9221293D01*
X16012206Y-9221293D02*
X16002682Y-9202246D01*
X16002682Y-9202246D02*
X16002682Y-9192722D01*
X16002682Y-9192722D02*
X16012206Y-9173674D01*
X16012206Y-9173674D02*
X16031253Y-9164150D01*
X16031253Y-9164150D02*
X16059825Y-9164150D01*
X16059825Y-9164150D02*
X16078872Y-9173674D01*
X16155063Y-9373674D02*
X16164587Y-9364150D01*
X16164587Y-9364150D02*
X16183634Y-9335579D01*
X16183634Y-9335579D02*
X16193158Y-9316531D01*
X16193158Y-9316531D02*
X16202682Y-9287960D01*
X16202682Y-9287960D02*
X16212206Y-9240341D01*
X16212206Y-9240341D02*
X16212206Y-9202246D01*
X16212206Y-9202246D02*
X16202682Y-9154627D01*
X16202682Y-9154627D02*
X16193158Y-9126055D01*
X16193158Y-9126055D02*
X16183634Y-9107008D01*
X16183634Y-9107008D02*
X16164587Y-9078436D01*
X16164587Y-9078436D02*
X16155063Y-9068912D01*
M02*
