M48
; DRILL file {KiCad 9.0.0} date 2025-05-06T12:44:32+0200
; FORMAT={-:-/ absolute / metric / decimal}
; #@! TF.CreationDate,2025-05-06T12:44:32+02:00
; #@! TF.GenerationSoftware,Kicad,Pcbnew,9.0.0
; #@! TF.FileFunction,Plated,1,2,PTH
FMAT,2
METRIC
; #@! TA.AperFunction,Plated,PTH,ComponentDrill
T1C0.200
; #@! TA.AperFunction,Plated,PTH,ViaDrill
T2C0.300
; #@! TA.AperFunction,Plated,PTH,ComponentDrill
T3C0.460
; #@! TA.AperFunction,Plated,PTH,ComponentDrill
T4C0.600
; #@! TA.AperFunction,Plated,PTH,ViaDrill
T5C2.600
%
G90
G05
T1
X131.059Y-60.878
X131.059Y-62.078
X131.059Y-63.278
X131.059Y-64.478
X132.259Y-60.878
X132.259Y-62.078
X132.259Y-63.278
X132.259Y-64.478
X133.459Y-60.878
X133.459Y-62.078
X133.459Y-63.278
X133.459Y-64.478
X134.659Y-60.878
X134.659Y-62.078
X134.659Y-63.278
X134.659Y-64.478
X147.723Y-61.393
X147.723Y-62.393
X147.723Y-63.393
X148.723Y-61.393
X148.723Y-62.393
X148.723Y-63.393
X149.723Y-61.393
X149.723Y-62.393
X149.723Y-63.393
T2
X119.355Y-68.224
X120.777Y-56.388
X120.811Y-58.547
X120.887Y-67.179
X121.895Y-50.698
X121.92Y-53.209
X123.427Y-58.238
X123.427Y-60.575
X123.427Y-61.896
X123.427Y-65.452
X123.427Y-66.773
X123.427Y-67.89
X124.435Y-50.698
X124.443Y-60.829
X124.46Y-53.209
X124.697Y-65.909
X124.748Y-69.871
X126.086Y-56.105
X126.975Y-50.698
X126.983Y-60.829
X127.0Y-53.209
X127.059Y-58.162
X127.161Y-71.751
X127.339Y-66.671
X127.372Y-67.789
X127.999Y-62.607
X128.253Y-60.829
X128.355Y-70.481
X128.629Y-61.869
X129.015Y-66.646
X129.371Y-70.633
X129.515Y-50.698
X129.523Y-73.529
X129.54Y-53.209
X130.124Y-55.8
X130.124Y-56.917
X131.784Y-67.077
X132.055Y-50.698
X132.063Y-53.209
X132.063Y-70.989
X132.063Y-73.529
X132.08Y-72.085
X132.867Y-55.829
X133.02Y-70.71
X134.197Y-69.271
X134.595Y-50.698
X134.603Y-73.529
X134.62Y-53.209
X135.441Y-62.582
X135.611Y-55.829
X135.966Y-69.271
X136.635Y-58.797
X137.109Y-69.271
X137.135Y-50.698
X137.143Y-73.529
X137.16Y-53.209
X137.581Y-56.907
X137.676Y-58.137
X138.717Y-67.994
X139.404Y-60.169
X139.404Y-61.286
X139.404Y-66.468
X139.607Y-73.529
X139.675Y-50.698
X139.7Y-53.209
X142.215Y-50.698
X142.223Y-63.369
X142.223Y-73.529
X143.264Y-59.762
X143.898Y-62.121
X143.898Y-65.062
X144.755Y-50.698
X144.763Y-53.209
X144.763Y-73.529
X144.78Y-66.294
X144.907Y-69.494
X145.213Y-59.488
X146.329Y-58.217
X146.482Y-66.294
X147.295Y-50.698
X147.303Y-53.209
X147.303Y-73.529
X147.703Y-69.084
X148.7Y-66.239
X149.835Y-50.698
X149.843Y-53.209
X149.843Y-70.989
X150.395Y-56.491
X151.157Y-60.01
X151.469Y-67.941
X152.358Y-58.34
X152.375Y-50.698
X152.375Y-57.302
X152.383Y-53.209
X152.383Y-55.749
X152.383Y-70.989
X152.383Y-73.529
X153.545Y-60.626
X154.263Y-65.168
X154.288Y-62.933
X154.915Y-50.698
X154.923Y-53.209
X154.923Y-70.989
X154.923Y-73.529
X155.272Y-69.795
X155.321Y-65.43
X155.599Y-62.759
X157.455Y-50.698
X157.463Y-53.209
X157.463Y-65.909
X157.463Y-68.449
X157.463Y-70.989
X157.463Y-73.529
X158.809Y-56.527
X159.995Y-50.698
X160.003Y-53.209
X160.003Y-55.749
X160.003Y-65.909
X160.003Y-68.449
X160.003Y-70.989
X160.003Y-73.529
X160.511Y-60.924
X162.535Y-50.698
X162.543Y-55.749
X162.543Y-60.829
X162.543Y-68.449
X162.543Y-73.529
X165.083Y-55.749
X165.083Y-68.449
X167.615Y-50.698
X167.623Y-55.749
X167.623Y-68.449
X167.623Y-70.989
X167.623Y-73.529
T3
X165.176Y-59.008
X165.176Y-65.992
T5
X118.1Y-52.5
X118.1Y-72.5
X165.7Y-52.5
X165.7Y-72.5
T4
G00X115.575Y-58.18
M15
G01X114.775Y-58.18
M16
G05
G00X115.575Y-66.82
M15
G01X114.775Y-66.82
M16
G05
G00X119.905Y-58.18
M15
G01X118.805Y-58.18
M16
G05
G00X119.905Y-66.82
M15
G01X118.805Y-66.82
M16
G05
M30
